<svg width="32" height="32" viewBox="0 0 32 32" fill="none" xmlns="http://www.w3.org/2000/svg">
<g id="vuesax/outline/arrow-circle-right">
<g id="arrow-circle-right">
<path id="Vector" d="M16 30.3337C8.09329 30.3337 1.66663 23.907 1.66663 16.0003C1.66663 8.09366 8.09329 1.66699 16 1.66699C23.9066 1.66699 30.3333 8.09366 30.3333 16.0003C30.3333 23.907 23.9066 30.3337 16 30.3337ZM16 3.66699C9.19996 3.66699 3.66663 9.20033 3.66663 16.0003C3.66663 22.8003 9.19996 28.3337 16 28.3337C22.8 28.3337 28.3333 22.8003 28.3333 16.0003C28.3333 9.20033 22.8 3.66699 16 3.66699Z" fill="#7ED957"/>
<path id="Vector_2" d="M14.32 21.7069C14.0667 21.7069 13.8134 21.6135 13.6134 21.4135C13.2267 21.0269 13.2267 20.3869 13.6134 20.0002L17.6134 16.0002L13.6134 12.0002C13.2267 11.6135 13.2267 10.9735 13.6134 10.5869C14 10.2002 14.64 10.2002 15.0267 10.5869L19.7334 15.2935C20.12 15.6802 20.12 16.3202 19.7334 16.7069L15.0267 21.4135C14.8267 21.6135 14.5734 21.7069 14.32 21.7069Z" fill="#7ED957"/>
</g>
</g>
</svg>
