<svg width="28" height="28" viewBox="0 0 28 28" fill="none" xmlns="http://www.w3.org/2000/svg">
<path d="M13.9987 25.7601C13.6487 25.7601 13.2988 25.6784 13.0071 25.5151C10.8254 24.3251 6.99874 23.0651 4.59541 22.7501L4.2571 22.7035C2.72877 22.5168 1.46875 21.0818 1.46875 19.5301V5.43673C1.46875 4.51507 1.83042 3.6751 2.49542 3.06844C3.16042 2.46177 4.02372 2.17009 4.93372 2.25176C7.48872 2.46176 11.3621 3.7451 13.5554 5.1101L13.8354 5.27345C13.9171 5.30845 14.0921 5.32012 14.1621 5.27345L14.3487 5.15675C15.1304 4.66675 16.1104 4.1884 17.1837 3.75673C17.452 3.65173 17.7554 3.68675 18.0004 3.85008C18.2454 4.01342 18.3854 4.28175 18.3854 4.57341V7.70007L19.3538 7.05842C19.6454 6.86008 20.0304 6.86008 20.3221 7.05842L21.2904 7.70007V3.24347C21.2904 2.82347 21.5937 2.46174 22.0021 2.38007C22.3404 2.32174 22.6788 2.27509 22.9821 2.25176C23.0054 2.25176 23.0987 2.25176 23.1221 2.25176C23.9737 2.18176 24.8487 2.47345 25.5021 3.08012C26.1671 3.68678 26.5287 4.52675 26.5287 5.44841V19.5301C26.5287 21.0934 25.2688 22.5168 23.7288 22.7035L23.3438 22.7501C20.9404 23.0651 17.0904 24.3368 14.9554 25.5151C14.6987 25.6784 14.3487 25.7601 13.9987 25.7601ZM4.64205 3.9784C4.26872 3.9784 3.93042 4.10674 3.66209 4.35174C3.37042 4.62008 3.20707 5.00507 3.20707 5.43673V19.5301C3.20707 20.2184 3.80209 20.8834 4.46709 20.9767L4.81708 21.0235C7.44208 21.3735 11.4671 22.6918 13.8004 23.9751C13.9054 24.0218 14.057 24.0335 14.1154 24.0101C16.4604 22.7151 20.4971 21.3851 23.1338 21.0351L23.5304 20.9884C24.1954 20.9068 24.7904 20.2301 24.7904 19.5418V5.46009C24.7904 5.02842 24.6271 4.6551 24.3354 4.3751C24.0437 4.10677 23.6354 3.97842 23.2154 4.00176C23.1804 4.00176 23.0754 4.00176 23.0521 4.00176V9.33343C23.0521 9.6601 22.8771 9.95173 22.5854 10.1034C22.2937 10.2551 21.9554 10.2434 21.6871 10.0568L19.8438 8.83177L18.0004 10.0568C17.7321 10.2318 17.3937 10.2551 17.102 10.1034C16.822 9.95173 16.6354 9.6601 16.6354 9.33343V5.91511C16.1337 6.16011 15.6787 6.4051 15.282 6.63843L15.0954 6.75507C14.4537 7.15174 13.5438 7.15175 12.9254 6.76675L12.6454 6.59179C10.6738 5.35513 7.08039 4.16507 4.79372 3.9784C4.73539 3.9784 4.68872 3.9784 4.64205 3.9784Z" fill="#2E2E2E"/>
<path d="M14 24.78C13.5217 24.78 13.125 24.3834 13.125 23.905V6.40503C13.125 5.9267 13.5217 5.53003 14 5.53003C14.4783 5.53003 14.875 5.9267 14.875 6.40503V23.905C14.875 24.395 14.4783 24.78 14 24.78Z" fill="#2E2E2E"/>
<path d="M22.1667 10.2083C21.9917 10.2083 21.8284 10.1616 21.6767 10.0566L19.8333 8.83166L17.99 10.0566C17.7216 10.2316 17.3834 10.255 17.0917 10.1033C16.8117 9.95162 16.625 9.65999 16.625 9.33332V4.5733C16.625 4.21163 16.8466 3.89662 17.1733 3.75662C18.7833 3.11495 20.545 2.61329 22.0267 2.37996C22.2833 2.33329 22.54 2.41501 22.7383 2.57835C22.9367 2.74168 23.0417 2.98669 23.0417 3.24335V9.33332C23.0417 9.65999 22.8666 9.95162 22.575 10.1033C22.4466 10.1733 22.3067 10.2083 22.1667 10.2083ZM19.8333 6.90663C19.9967 6.90663 20.1716 6.95331 20.3233 7.05831L21.2917 7.69996V4.30499C20.3583 4.51499 19.3433 4.81832 18.375 5.17999V7.69996L19.3434 7.05831C19.495 6.95331 19.67 6.90663 19.8333 6.90663Z" fill="#2E2E2E"/>
</svg>
