<svg width="28" height="28" viewBox="0 0 28 28" fill="none" xmlns="http://www.w3.org/2000/svg">
<path d="M19.1098 26.5418H3.77975C2.67142 26.5418 1.64476 26.0285 0.979758 25.1302C0.303091 24.2202 0.104768 23.0768 0.443101 21.9918L5.35476 6.20673C5.79809 4.73673 7.15144 3.7334 8.69144 3.7334H23.0414C24.4531 3.7334 25.7248 4.5735 26.2614 5.88017C26.5531 6.55683 26.6114 7.32685 26.4364 8.08518L22.5048 23.8701C22.1314 25.4451 20.7314 26.5418 19.1098 26.5418ZM8.70309 5.49508C7.94475 5.49508 7.25643 5.99681 7.03476 6.73181L2.1231 22.5168C1.95977 23.0652 2.05309 23.6368 2.40309 24.1035C2.72976 24.5468 3.2431 24.8035 3.79143 24.8035H19.1214C19.9264 24.8035 20.6264 24.2551 20.8131 23.4734L24.7448 7.67674C24.8381 7.29174 24.8148 6.90679 24.6631 6.56846C24.3831 5.90346 23.7648 5.4834 23.0531 5.4834H8.70309V5.49508Z" fill="#2E2E2E"/>
<path d="M24.2432 26.5418H18.6665C18.1882 26.5418 17.7915 26.1451 17.7915 25.6668C17.7915 25.1885 18.1882 24.7918 18.6665 24.7918H24.2432C24.7215 24.7918 25.1648 24.5935 25.4915 24.2435C25.8182 23.8935 25.9815 23.4268 25.9465 22.9485L24.7915 7.05852C24.7565 6.58018 25.1182 6.16012 25.5965 6.12512C26.0748 6.10179 26.4948 6.45172 26.5298 6.93006L27.6849 22.8202C27.7549 23.7769 27.4165 24.7335 26.7632 25.4335C26.1215 26.1452 25.1998 26.5418 24.2432 26.5418Z" fill="#2E2E2E"/>
<path d="M11.2929 8.31832C11.2229 8.31832 11.1529 8.30663 11.0829 8.29497C10.6162 8.1783 10.3246 7.7116 10.4413 7.23326L11.6546 2.19332C11.7712 1.72666 12.2379 1.43493 12.7162 1.5516C13.1829 1.66827 13.4746 2.13497 13.3579 2.61331L12.1446 7.65339C12.0512 8.05005 11.6896 8.31832 11.2929 8.31832Z" fill="#2E2E2E"/>
<path d="M19.1097 8.33019C19.0514 8.33019 18.9813 8.33017 18.923 8.30683C18.4563 8.20183 18.153 7.73515 18.2464 7.26848L19.343 2.20519C19.448 1.72686 19.9147 1.43524 20.3813 1.52857C20.848 1.62191 21.1513 2.10011 21.058 2.56678L19.9613 7.63022C19.8797 8.05022 19.518 8.33019 19.1097 8.33019Z" fill="#2E2E2E"/>
<path d="M18.3167 14.875H8.9834C8.50507 14.875 8.1084 14.4783 8.1084 14C8.1084 13.5217 8.50507 13.125 8.9834 13.125H18.3167C18.7951 13.125 19.1917 13.5217 19.1917 14C19.1917 14.4783 18.7951 14.875 18.3167 14.875Z" fill="#2E2E2E"/>
<path d="M17.1502 19.5415H7.81689C7.33856 19.5415 6.94189 19.1448 6.94189 18.6665C6.94189 18.1882 7.33856 17.7915 7.81689 17.7915H17.1502C17.6286 17.7915 18.0252 18.1882 18.0252 18.6665C18.0252 19.1448 17.6286 19.5415 17.1502 19.5415Z" fill="#2E2E2E"/>
</svg>
