<svg width="61" height="60" viewBox="0 0 61 60" fill="none" xmlns="http://www.w3.org/2000/svg">
<g id="Group">
<path id="Vector" d="M25.46 12.65C26.4741 10.7186 27.8668 9.01111 29.555 7.62941C31.2432 6.2477 33.1922 5.22005 35.2861 4.60773C37.3799 3.99541 39.5756 3.81094 41.7422 4.06534C43.9088 4.31973 46.0021 5.00777 47.8971 6.08844C49.7921 7.16911 51.4502 8.62029 52.7724 10.3555C54.0946 12.0906 55.0539 14.0742 55.5931 16.1881C56.1323 18.3019 56.2403 20.5027 55.9108 22.6592C55.5812 24.8156 54.8209 26.8837 53.675 28.74C55.6803 30.6285 57.0721 33.0756 57.6702 35.7644C58.2683 38.4532 58.0451 41.2596 57.0295 43.82C56.0138 46.3804 54.2526 48.5768 51.974 50.1244C49.6954 51.6721 47.0045 52.4997 44.25 52.5L23 52.4975C20.271 52.4955 17.5714 51.9349 15.0672 50.8505C12.5629 49.766 10.3072 48.1805 8.43865 46.1916C6.57013 44.2026 5.12842 41.8523 4.20223 39.2854C3.27605 36.7184 2.885 33.989 3.05314 31.2653C3.22128 28.5415 3.94506 25.8809 5.17994 23.4474C6.41481 21.0138 8.13465 18.8587 10.2336 17.1147C12.3326 15.3707 14.7662 14.0747 17.3848 13.3064C20.0034 12.5382 22.7515 12.3139 25.46 12.6475V12.65ZM30.6375 14.01C33.1346 15.0451 35.3968 16.5741 37.2884 18.5051C39.1799 20.4362 40.6618 22.7295 41.645 25.2475C44.2646 24.7454 46.9735 25.012 49.445 26.015C50.6039 23.5419 50.8235 20.7317 50.063 18.1086C49.3024 15.4854 47.6136 13.2285 45.3115 11.7589C43.0095 10.2893 40.2514 9.70731 37.5518 10.1215C34.8523 10.5357 32.3955 11.9178 30.64 14.01H30.6375ZM44.25 47.5C45.6926 47.4998 47.1127 47.143 48.3841 46.4612C49.6554 45.7794 50.7384 44.7938 51.5367 43.5923C52.3351 42.3907 52.8239 41.0104 52.9598 39.5742C53.0957 38.1381 52.8744 36.6906 52.3156 35.3606C51.7568 34.0306 50.8778 32.8595 49.7569 31.9513C48.636 31.0432 47.308 30.4263 45.8911 30.1555C44.4741 29.8848 43.0122 29.9685 41.6354 30.3994C40.2587 30.8303 39.0098 31.5948 38 32.625V32.5C38 29.5333 37.1203 26.6332 35.472 24.1665C33.8238 21.6997 31.4811 19.7772 28.7402 18.6418C25.9993 17.5065 22.9833 17.2095 20.0736 17.7883C17.1639 18.367 14.4912 19.7956 12.3934 21.8934C10.2956 23.9912 8.86698 26.664 8.2882 29.5737C7.70943 32.4834 8.00648 35.4994 9.14179 38.2403C10.2771 40.9812 12.1997 43.3239 14.6664 44.9721C17.1332 46.6203 20.0333 47.5 23 47.5H44.25Z" fill="#9F67FD"/>
</g>
</svg>
