<svg width="28" height="28" viewBox="0 0 28 28" fill="none" xmlns="http://www.w3.org/2000/svg">
<path d="M20.696 26.542H7.30268C4.39768 26.542 2.04102 24.1853 2.04102 21.2803V13.4287C2.04102 10.5237 4.39768 8.16699 7.30268 8.16699H20.696C23.601 8.16699 25.9577 10.5237 25.9577 13.4287V15.1087C25.9577 15.587 25.561 15.9837 25.0827 15.9837H22.726C22.3177 15.9837 21.9443 16.1353 21.676 16.4153L21.6644 16.427C21.3377 16.742 21.186 17.1736 21.221 17.617C21.291 18.387 22.026 19.0053 22.866 19.0053H25.0827C25.561 19.0053 25.9577 19.402 25.9577 19.8803V21.2686C25.9577 24.1853 23.601 26.542 20.696 26.542ZM7.30268 9.91699C5.36602 9.91699 3.79102 11.492 3.79102 13.4287V21.2803C3.79102 23.217 5.36602 24.792 7.30268 24.792H20.696C22.6327 24.792 24.2077 23.217 24.2077 21.2803V20.767H22.866C21.1044 20.767 19.611 19.4603 19.471 17.7803C19.3777 16.8236 19.7277 15.8787 20.4277 15.1903C21.0344 14.572 21.851 14.2337 22.726 14.2337H24.2077V13.4287C24.2077 11.492 22.6327 9.91699 20.696 9.91699H7.30268Z" fill="#4A4A4A"/>
<path d="M2.91602 15.353C2.43768 15.353 2.04102 14.9564 2.04102 14.478V9.14641C2.04102 7.40808 3.13768 5.83301 4.75935 5.21468L14.0227 1.71468C14.9794 1.35301 16.041 1.4814 16.8694 2.06474C17.7093 2.64807 18.1994 3.59306 18.1994 4.60806V9.04138C18.1994 9.51972 17.8027 9.91638 17.3244 9.91638C16.846 9.91638 16.4494 9.51972 16.4494 9.04138V4.60806C16.4494 4.16473 16.2394 3.75638 15.866 3.49971C15.4927 3.24305 15.0493 3.18471 14.6293 3.34804L5.36602 6.84804C4.42102 7.20971 3.77935 8.13141 3.77935 9.14641V14.478C3.79102 14.968 3.39435 15.353 2.91602 15.353Z" fill="#4A4A4A"/>
<path d="M22.8669 20.7667C21.1052 20.7667 19.6119 19.46 19.4719 17.78C19.3785 16.8117 19.7285 15.8667 20.4285 15.1784C21.0235 14.5717 21.8402 14.2334 22.7152 14.2334H25.1419C26.2969 14.2684 27.1835 15.1783 27.1835 16.2983V18.7018C27.1835 19.8218 26.2969 20.7317 25.1769 20.7667H22.8669ZM25.1185 15.9834H22.7269C22.3185 15.9834 21.9452 16.1351 21.6769 16.4151C21.3385 16.7417 21.1752 17.185 21.2219 17.6284C21.2919 18.3984 22.0269 19.0167 22.8669 19.0167H25.1535C25.3052 19.0167 25.4452 18.8768 25.4452 18.7018V16.2983C25.4452 16.1233 25.3052 15.9951 25.1185 15.9834Z" fill="#4A4A4A"/>
<path d="M16.3327 14.875H8.16602C7.68768 14.875 7.29102 14.4783 7.29102 14C7.29102 13.5217 7.68768 13.125 8.16602 13.125H16.3327C16.811 13.125 17.2077 13.5217 17.2077 14C17.2077 14.4783 16.811 14.875 16.3327 14.875Z" fill="#4A4A4A"/>
</svg>
