<svg width="101" height="100" viewBox="0 0 101 100" fill="none" xmlns="http://www.w3.org/2000/svg">
<path d="M39.958 63.6668C39.1663 63.6668 38.3747 63.3752 37.7497 62.7502C34.333 59.3335 32.458 54.7918 32.458 50.0002C32.458 40.0418 40.5413 31.9585 50.4997 31.9585C55.2913 31.9585 59.833 33.8335 63.2497 37.2502C63.833 37.8335 64.1663 38.6252 64.1663 39.4585C64.1663 40.2918 63.833 41.0835 63.2497 41.6668L42.1663 62.7502C41.5413 63.3752 40.7497 63.6668 39.958 63.6668ZM50.4997 38.2085C43.9997 38.2085 38.708 43.5002 38.708 50.0002C38.708 52.0835 39.2497 54.0835 40.2497 55.8335L56.333 39.7502C54.583 38.7502 52.583 38.2085 50.4997 38.2085Z" fill="#9F9F9F"/>
<path d="M23.8337 77.1248C23.1253 77.1248 22.3753 76.8748 21.792 76.3748C17.3337 72.5832 13.3337 67.9165 9.91699 62.4998C5.50033 55.6248 5.50033 44.4165 9.91699 37.4998C20.0837 21.5832 34.8753 12.4165 50.5003 12.4165C59.667 12.4165 68.7087 15.5832 76.6253 21.5415C78.0003 22.5832 78.292 24.5415 77.2503 25.9165C76.2087 27.2915 74.2503 27.5832 72.8753 26.5415C66.042 21.3748 58.292 18.6665 50.5003 18.6665C37.042 18.6665 24.167 26.7498 15.167 40.8748C12.042 45.7498 12.042 54.2498 15.167 59.1248C18.292 63.9998 21.8753 68.2082 25.8337 71.6248C27.1253 72.7498 27.292 74.7082 26.167 76.0415C25.5837 76.7498 24.7087 77.1248 23.8337 77.1248Z" fill="#9F9F9F"/>
<path d="M50.4997 87.5834C44.958 87.5834 39.5414 86.4584 34.333 84.2501C32.7497 83.5834 31.9997 81.7501 32.6664 80.1667C33.333 78.5834 35.1664 77.8334 36.7497 78.5001C41.1664 80.3751 45.7914 81.3334 50.458 81.3334C63.9164 81.3334 76.7914 73.2501 85.7914 59.1251C88.9164 54.2501 88.9164 45.7501 85.7914 40.8751C84.4997 38.8334 83.083 36.8751 81.583 35.0417C80.4997 33.7084 80.708 31.7501 82.0414 30.6251C83.3747 29.5417 85.333 29.7084 86.458 31.0834C88.083 33.0834 89.6664 35.2501 91.083 37.5001C95.4997 44.3751 95.4997 55.5834 91.083 62.5001C80.9164 78.4167 66.1247 87.5834 50.4997 87.5834Z" fill="#9F9F9F"/>
<path d="M53.3753 67.7916C51.9169 67.7916 50.5836 66.75 50.2919 65.25C49.9586 63.5416 51.0836 61.9166 52.7919 61.625C57.3753 60.7916 61.2086 56.9583 62.0419 52.375C62.3753 50.6666 64.0002 49.5833 65.7086 49.875C67.4169 50.2083 68.5419 51.8333 68.2086 53.5416C66.8753 60.75 61.1253 66.4583 53.9586 67.7916C53.7503 67.75 53.5836 67.7916 53.3753 67.7916Z" fill="#9F9F9F"/>
<path d="M8.83333 94.7918C8.04167 94.7918 7.25 94.5002 6.625 93.8752C5.41667 92.6668 5.41667 90.6668 6.625 89.4585L37.75 58.3335C38.9583 57.1252 40.9583 57.1252 42.1667 58.3335C43.375 59.5418 43.375 61.5418 42.1667 62.7502L11.0417 93.8752C10.4167 94.5002 9.625 94.7918 8.83333 94.7918Z" fill="#9F9F9F"/>
<path d="M61.0413 42.5833C60.2497 42.5833 59.458 42.2917 58.833 41.6667C57.6247 40.4583 57.6247 38.4583 58.833 37.25L89.958 6.125C91.1663 4.91667 93.1663 4.91667 94.3747 6.125C95.583 7.33333 95.583 9.33333 94.3747 10.5417L63.2497 41.6667C62.6247 42.2917 61.833 42.5833 61.0413 42.5833Z" fill="#9F9F9F"/>
</svg>
