<svg width="60" height="60" viewBox="0 0 60 60" fill="none" xmlns="http://www.w3.org/2000/svg">
<g id="Group">
<path id="Vector" d="M15 5C21.725 5 27.56 8.7925 30.4925 14.3525C33.435 10.2075 38.275 7.5 43.75 7.5H52.5V13.75C52.5 22.725 45.225 30 36.25 30H32.5V32.5H45V50C45 52.7625 42.7625 55 40 55H20C17.2375 55 15 52.7625 15 50V32.5H27.5V27.5H22.5C12.835 27.5 5 19.665 5 10V5H15ZM40 37.5H20V50H40V37.5ZM47.5 12.5H43.75C37.5375 12.5 32.5 17.5375 32.5 23.75V25H36.25C42.4625 25 47.5 19.9625 47.5 13.75V12.5ZM15 10H10C10 16.9025 15.5975 22.5 22.5 22.5H27.5C27.5 15.5975 21.9025 10 15 10Z" fill="#9F67FD"/>
</g>
</svg>
