<svg width="41" height="40" viewBox="0 0 41 40" fill="none" xmlns="http://www.w3.org/2000/svg">
<path d="M25.5007 37.9163H15.5007C6.45065 37.9163 2.58398 34.0497 2.58398 24.9997V14.9997C2.58398 5.94967 6.45065 2.08301 15.5007 2.08301H25.5007C34.5506 2.08301 38.4173 5.94967 38.4173 14.9997V24.9997C38.4173 34.0497 34.5506 37.9163 25.5007 37.9163ZM15.5007 4.58301C7.81732 4.58301 5.08398 7.31634 5.08398 14.9997V24.9997C5.08398 32.683 7.81732 35.4163 15.5007 35.4163H25.5007C33.184 35.4163 35.9173 32.683 35.9173 24.9997V14.9997C35.9173 7.31634 33.184 4.58301 25.5007 4.58301H15.5007Z" fill="#9F9F9F"/>
<path d="M15.4993 17.9167C12.966 17.9167 10.916 15.8667 10.916 13.3333C10.916 10.8 12.966 8.75 15.4993 8.75C18.0327 8.75 20.0827 10.8 20.0827 13.3333C20.0827 15.8667 18.0327 17.9167 15.4993 17.9167ZM15.4993 11.25C14.3493 11.25 13.416 12.1833 13.416 13.3333C13.416 14.4833 14.3493 15.4167 15.4993 15.4167C16.6493 15.4167 17.5827 14.4833 17.5827 13.3333C17.5827 12.1833 16.6493 11.25 15.4993 11.25Z" fill="#9F9F9F"/>
<path d="M4.94995 32.8326C4.54995 32.8326 4.14995 32.6326 3.91661 32.2826C3.53328 31.716 3.68328 30.9326 4.26661 30.5493L12.4833 25.0326C14.2833 23.816 16.7666 23.966 18.3999 25.3493L18.9499 25.8326C19.7833 26.5493 21.1999 26.5493 22.0166 25.8326L28.9499 19.8826C30.7166 18.366 33.4999 18.366 35.2833 19.8826L37.9999 22.216C38.5166 22.666 38.5833 23.4493 38.1333 23.9826C37.6833 24.4993 36.8999 24.566 36.3666 24.116L33.6499 21.7826C32.8166 21.0659 31.3999 21.0659 30.5666 21.7826L23.6333 27.7326C21.8666 29.2493 19.0833 29.2493 17.2999 27.7326L16.7499 27.2493C15.9833 26.5993 14.7166 26.5326 13.8666 27.116L5.64995 32.6326C5.43328 32.7659 5.18328 32.8326 4.94995 32.8326Z" fill="#9F9F9F"/>
</svg>
