<svg width="500" height="333" viewBox="0 0 500 333" fill="none" xmlns="http://www.w3.org/2000/svg">
<path d="M337.67 102.532C337.67 102.532 364.25 88.9821 373.37 92.8321C382.49 96.6821 399 129.012 406.42 134.362C415 140.562 427.31 155.212 437 173.122C446.69 191.032 448 226.682 448 226.682H381.67L337.67 102.532Z" fill="#D7D7D7"/>
<path d="M194.229 144.862C194.229 144.862 163.309 126.862 149.989 119.312C136.669 111.762 102.309 157.152 82.1593 160.982C62.0093 164.812 55.5293 227.712 55.5293 227.712H181.529L194.229 144.862Z" fill="#E0E0E0"/>
<path d="M238.5 139.862C238.5 139.862 219 123.532 208.74 120.442C198.48 117.352 161 153.152 146 153.002C131 152.852 93.66 169.422 93.66 169.422L64 227.752H194.84L238.5 139.862Z" fill="#E6E6E6"/>
<path d="M500 289.072H0V289.322H500V289.072Z" fill="#F0F0F0"/>
<path d="M297.871 127.142C297.871 127.142 278.411 106.732 271.201 105.542C263.991 104.352 230.021 134.642 225.201 137.642C220.381 140.642 205.901 142.142 200.371 143.142C194.841 144.142 179.091 150.522 178.591 152.392C178.091 154.262 162.361 171.332 162.361 171.332C162.361 171.332 99.0607 208.452 87.4707 227.792H330.001L297.871 127.142Z" fill="#F0F0F0"/>
<path d="M446 325.932C446 329.692 357.28 332.742 247.83 332.742C138.38 332.742 49.6699 329.692 49.6699 325.932C49.6699 322.172 138.39 319.112 247.83 319.112C357.27 319.112 446 322.162 446 325.932Z" fill="#F0F0F0"/>
<path d="M301.221 86.833V23.103L300.521 23.083L300.572 86.813L301.221 86.833Z" fill="#263238"/>
<path d="M301.222 23.2026C301.222 23.2026 296.362 20.7427 291.732 23.4927C287.102 26.2427 280.922 22.8827 280.922 22.8827C282.042 25.5827 284.352 28.8827 286.862 29.5727C285.329 31.7254 283.289 33.4668 280.922 34.6426C280.922 34.6426 286.632 37.5826 290.652 34.6426C294.672 31.7026 301.222 35.2326 301.222 35.2326V23.2026Z" fill="#9F67FD"/>
<path d="M265.86 123.122V44.8823L265 44.8623L265.06 123.092L265.86 123.122Z" fill="#263238"/>
<path d="M265.861 45.0032C265.861 45.0032 259.861 42.0032 254.211 45.3632C248.561 48.7232 240.941 44.6132 240.941 44.6132C242.321 47.9232 245.151 51.9933 248.241 52.8333C246.35 55.4716 243.844 57.6098 240.941 59.0632C240.941 59.0632 247.941 62.6632 252.881 59.0632C257.821 55.4632 265.881 59.7733 265.881 59.7733L265.861 45.0032Z" fill="#9F67FD"/>
<path d="M225.411 170.243V76.9929L224.391 76.9629L224.461 170.213L225.411 170.243Z" fill="#263238"/>
<path d="M225.411 77.1326C225.411 77.1326 218.301 73.5426 211.521 77.5626C204.741 81.5826 195.711 76.6626 195.711 76.6626C197.351 80.6126 200.711 85.4626 204.411 86.4626C202.161 89.6101 199.174 92.1578 195.711 93.8826C195.711 93.8826 204.071 98.1726 209.941 93.8826C215.811 89.5926 225.411 94.7426 225.411 94.7426V77.1326Z" fill="#9F67FD"/>
<path d="M330.611 58.8425V0.832504L329.971 0.8125L330.021 58.8225L330.611 58.8425Z" fill="#263238"/>
<path d="M330.611 0.922768C330.611 0.922768 326.181 -1.31723 321.971 1.18277C317.761 3.68277 312.131 0.622773 312.131 0.622773C313.131 3.08277 315.251 6.10277 317.541 6.72277C316.142 8.68166 314.285 10.2679 312.131 11.3428C312.131 11.3428 317.331 14.0128 320.991 11.3428C324.651 8.67277 330.611 11.8728 330.611 11.8728V0.922768Z" fill="#9F67FD"/>
<path d="M455.9 289.072H160.9C160.9 289.072 161.14 288.142 161.48 286.922C161.54 286.712 161.6 286.492 161.66 286.252C161.72 286.012 161.76 285.902 161.8 285.732C161.84 285.562 161.98 285.062 162.09 284.732C162.093 284.712 162.093 284.692 162.09 284.672C162.71 282.402 163.57 279.382 164.64 275.732C164.77 275.282 164.91 274.822 165.05 274.352C165.19 273.882 165.34 273.352 165.47 272.882C165.79 271.882 166.12 270.742 166.47 269.592C166.7 268.902 166.91 268.172 167.13 267.432C167.35 266.692 167.65 265.752 167.92 264.882C168.1 264.312 168.27 263.712 168.45 263.142C168.63 262.572 168.76 262.142 168.9 261.662C169.16 260.872 169.41 260.072 169.67 259.232C169.83 258.732 170 258.232 170.16 257.702C170.32 257.172 170.55 256.462 170.76 255.812C171.76 252.732 172.76 249.512 173.9 246.232C173.933 246.158 173.96 246.081 173.98 246.002C174.42 244.732 174.85 243.432 175.3 242.132C175.319 242.061 175.343 241.991 175.37 241.922L176.26 239.342C176.59 238.422 176.9 237.502 177.26 236.562C177.62 235.622 177.86 234.882 178.17 234.042L179.29 230.912C179.917 229.212 180.55 227.506 181.19 225.792L183.06 220.932L183.89 218.832C184.72 216.742 185.56 214.642 186.42 212.572C186.71 211.892 186.99 211.202 187.28 210.572C188.43 207.832 189.61 205.142 190.8 202.572C191.64 200.719 192.49 198.909 193.35 197.142C194.92 193.892 196.52 190.782 198.14 187.872C204.97 175.552 212.14 166.652 219.02 164.952C224.11 163.702 229.59 159.802 235.25 154.302C237.18 152.442 239.13 150.382 241.09 148.172C255.29 132.262 270.25 108.822 283.02 93.3324L301.23 80.1523C302.182 79.3347 303.055 78.4309 303.84 77.4523C308.35 72.3623 317.19 61.5624 320.06 57.9424C322.61 55.3924 327.95 54.2823 334.22 53.6523C342.22 60.6523 360.77 86.5124 375.56 113.472C377.56 117.102 391.93 133.042 394.22 136.552C395.11 137.912 395.96 139.302 396.79 140.712C408.41 160.572 414.3 184.872 428.79 199.962C430.45 201.702 432.79 202.132 434.58 203.712C436.013 204.983 437.319 206.39 438.48 207.912C442.17 212.868 445.046 218.381 447 224.242C456.37 251.072 455.9 289.072 455.9 289.072Z" fill="#9F9F9F"/>
<path opacity="0.1" d="M230.621 169.143C230.621 169.143 260.001 196.423 269.001 201.083C278.001 205.743 310.171 178.173 310.171 178.173C310.171 178.173 317.361 173.123 311.841 170.793C306.321 168.463 286.181 180.083 273.151 181.713C263.841 182.883 252.311 173.513 250.311 173.123C248.311 172.733 230.621 169.143 230.621 169.143Z" fill="white"/>
<path opacity="0.1" d="M347.151 98.0927L318.151 99.3227C306.151 99.8427 287.661 97.3227 283.031 93.1827L301.241 80.0027C302.193 79.1851 303.066 78.2813 303.851 77.3027C308.691 82.7027 317.191 91.9027 319.651 92.6527C323.151 93.7227 347.151 98.0927 347.151 98.0927Z" fill="white"/>
<path opacity="0.2" d="M438.501 207.762C422.971 210.762 407.871 215.502 389.201 213.942C357.931 211.322 322.101 213.102 324.121 206.242C326.141 199.382 331.691 178.062 354.391 178.292C367.251 178.412 386.051 157.192 396.801 140.562C408.421 160.423 414.311 184.722 428.801 199.812C430.461 201.553 432.801 201.982 434.591 203.562C436.027 204.833 437.336 206.239 438.501 207.762Z" fill="#4A4A4A"/>
<path opacity="0.2" d="M455.9 289.072H160.9L161.48 286.902C161.55 286.692 161.6 286.472 161.66 286.242C161.718 286.072 161.764 285.898 161.8 285.722C161.9 285.392 161.99 285.052 162.09 284.722C162.094 284.706 162.094 284.689 162.09 284.672C162.72 282.412 163.59 279.372 164.64 275.742C164.78 275.282 164.91 274.822 165.05 274.342C165.19 273.862 165.34 273.342 165.48 272.882C165.8 271.882 166.12 270.732 166.48 269.602C166.71 268.892 166.92 268.182 167.14 267.432C167.36 266.682 167.66 265.752 167.93 264.882C168.11 264.302 168.28 263.722 168.46 263.142C168.64 262.562 168.77 262.142 168.92 261.662C169.17 260.872 169.43 260.072 169.68 259.232C169.84 258.722 170.01 258.232 170.17 257.712C170.33 257.192 170.56 256.452 170.78 255.822C171.78 252.742 172.78 249.532 173.91 246.232C173.943 246.158 173.97 246.081 173.99 246.002L175.31 242.132C175.327 242.059 175.353 241.988 175.39 241.922C175.67 241.072 175.97 240.212 176.27 239.352L177.27 236.562C177.557 235.729 177.857 234.889 178.17 234.042L179.29 230.912C179.917 229.212 180.554 227.506 181.2 225.792C181.81 224.172 182.44 222.542 183.07 220.932C183.34 220.222 183.62 219.522 183.89 218.832C184.724 216.732 185.567 214.646 186.42 212.572C186.71 211.892 187 211.202 187.28 210.522C188.43 207.792 189.61 205.102 190.8 202.522C191.64 200.669 192.49 198.859 193.35 197.092C194.92 193.842 196.53 190.742 198.14 187.822C208.77 187.822 222.94 190.462 235.36 201.822C249.88 215.092 259.04 242.712 292.36 239.232C325.68 235.752 352.53 243.122 387.54 256.962C414.54 267.622 440.54 243.582 446.97 224.322C456.38 251.082 455.9 289.072 455.9 289.072Z" fill="#4A4A4A"/>
<path d="M243.73 266.702C243.73 266.702 260.51 247.862 263.3 247.862C266.09 247.862 287.68 248.512 297.84 247.862C308 247.212 319.16 258.862 328.1 266.702C337.04 274.542 361.1 281.702 361.1 281.702L365 288.862H243.73V266.702Z" fill="#263238"/>
<path opacity="0.2" d="M365 288.862H243.74V266.702C243.74 266.702 260.51 247.862 263.3 247.862C263.88 247.862 265.3 247.862 267.17 247.922C267.84 259.992 277.47 269.012 288.01 266.782L288.26 266.732C292.39 265.862 306.42 268.362 310.89 276.812C315.36 285.262 336.7 284.322 336.7 284.322C336.7 284.322 356.2 285.322 364.42 287.822L365 288.862Z" fill="#4A4A4A"/>
<path d="M266.091 288.863H72.8008C72.8008 288.863 73.0908 287.863 73.6308 286.023C73.7508 285.623 73.8708 285.193 74.0108 284.713C74.5708 282.833 75.3008 280.393 76.1608 277.603C76.5941 276.203 77.0541 274.723 77.5408 273.163C77.7908 272.393 78.0508 271.593 78.3008 270.783L79.4908 267.083L79.9108 265.833C81.9108 259.913 84.0408 253.643 86.2008 248.103C86.8108 246.513 87.4408 244.973 88.0608 243.523C88.5208 242.433 88.9808 241.393 89.4208 240.413C89.8608 239.433 90.3308 238.503 90.7608 237.623C91.0508 237.053 91.3408 236.513 91.6208 235.993C92.472 234.218 93.6726 232.633 95.1508 231.333C111.501 220.333 124.671 206.693 134.061 200.223C145.171 192.563 158.191 189.863 170.391 189.513C178.626 189.646 186.845 190.288 195.001 191.433L196.581 191.693C197 191.772 197.414 191.876 197.821 192.003C198.64 192.255 199.43 192.59 200.181 193.003C200.411 193.133 200.661 193.253 200.891 193.393C202.137 194.147 203.309 195.018 204.391 195.993C205.031 196.583 205.691 197.203 206.391 197.863C206.413 197.905 206.444 197.943 206.481 197.973C206.941 198.453 207.391 198.973 207.831 199.463C209.717 201.641 211.461 203.939 213.051 206.343C213.901 207.593 214.721 208.883 215.551 210.183C215.941 210.793 216.301 211.403 216.691 212.013L217.991 214.173C218.411 214.873 218.821 215.553 219.221 216.243C219.441 216.603 219.651 216.983 219.881 217.353C220.881 219.053 221.854 220.719 222.801 222.353C222.838 222.443 222.889 222.527 222.951 222.603C223.271 223.193 223.611 223.763 223.951 224.333L224.131 224.633C224.721 225.633 225.301 226.633 225.881 227.573C226.271 228.213 226.631 228.823 227.021 229.413C227.951 230.893 228.881 232.293 229.771 233.543C230.121 234.023 230.471 234.543 230.831 234.953C230.864 235.011 230.904 235.064 230.951 235.113C231.241 235.513 231.551 235.863 231.851 236.223L231.951 236.333C232.239 236.683 232.546 237.016 232.871 237.333C233.037 237.51 233.214 237.677 233.401 237.833C233.839 238.231 234.307 238.596 234.801 238.923C234.945 239.027 235.099 239.118 235.261 239.193C235.431 239.283 235.601 239.353 235.771 239.423C235.89 239.476 236.014 239.52 236.141 239.553C236.316 239.622 236.502 239.663 236.691 239.673C238.538 240.077 240.275 240.878 241.781 242.023L242.911 242.843C243.291 243.123 243.661 243.433 244.061 243.753C244.461 244.073 244.821 244.413 245.211 244.753C245.601 245.093 246.011 245.453 246.391 245.823C246.991 246.383 247.591 246.973 248.171 247.563C248.371 247.753 248.571 247.953 248.771 248.173C249.771 249.173 250.771 250.263 251.771 251.353C251.971 251.583 252.171 251.793 252.351 252.033C259.351 260.033 265.521 269.163 266.151 270.623C267.211 273.203 266.091 288.863 266.091 288.863Z" fill="#263238"/>
<path opacity="0.1" d="M266.091 288.863H72.8008C72.8008 288.863 73.0908 287.863 73.6308 286.023C73.7508 285.623 73.8708 285.193 74.0108 284.713C74.5708 282.833 75.3008 280.393 76.1608 277.603C76.5941 276.203 77.0541 274.723 77.5408 273.163C77.7908 272.393 78.0508 271.593 78.3008 270.783L79.4908 267.083L79.9108 265.833C81.9108 259.913 84.0408 253.643 86.2008 248.103C86.8108 246.513 87.4408 244.973 88.0608 243.523C88.5208 242.433 88.9808 241.393 89.4208 240.413C89.8608 239.433 90.3308 238.503 90.7608 237.623C91.0508 237.053 91.3408 236.513 91.6208 235.993C92.472 234.218 93.6726 232.633 95.1508 231.333C111.501 220.333 124.671 206.693 134.061 200.223C145.171 192.563 158.191 189.863 170.391 189.513C178.626 189.646 186.845 190.288 195.001 191.433L196.581 191.693C197 191.772 197.414 191.876 197.821 192.003C198.64 192.255 199.43 192.59 200.181 193.003C200.411 193.133 200.661 193.253 200.891 193.393C202.137 194.147 203.309 195.018 204.391 195.993C205.031 196.583 205.691 197.203 206.391 197.863C206.413 197.905 206.444 197.943 206.481 197.973C206.941 198.453 207.391 198.973 207.831 199.463C209.717 201.641 211.461 203.939 213.051 206.343C213.901 207.593 214.721 208.883 215.551 210.183C215.941 210.793 216.301 211.403 216.691 212.013L217.991 214.173C218.411 214.873 218.821 215.553 219.221 216.243C219.441 216.603 219.651 216.983 219.881 217.353C220.881 219.053 221.854 220.719 222.801 222.353C222.838 222.443 222.889 222.527 222.951 222.603C223.271 223.193 223.611 223.763 223.951 224.333L224.131 224.633C224.721 225.633 225.301 226.633 225.881 227.573C226.271 228.213 226.631 228.823 227.021 229.413C227.951 230.893 228.881 232.293 229.771 233.543C230.121 234.023 230.471 234.543 230.831 234.953C230.864 235.011 230.904 235.064 230.951 235.113C231.241 235.513 231.551 235.863 231.851 236.223L231.951 236.333C232.239 236.683 232.546 237.016 232.871 237.333C233.037 237.51 233.214 237.677 233.401 237.833C233.839 238.231 234.307 238.596 234.801 238.923C234.945 239.027 235.099 239.118 235.261 239.193C235.431 239.283 235.601 239.353 235.771 239.423C235.89 239.476 236.014 239.52 236.141 239.553C236.316 239.622 236.502 239.663 236.691 239.673C238.538 240.077 240.275 240.878 241.781 242.023L242.911 242.843C243.291 243.123 243.661 243.433 244.061 243.753C244.461 244.073 244.821 244.413 245.211 244.753C245.601 245.093 246.011 245.453 246.391 245.823C246.991 246.383 247.591 246.973 248.171 247.563C248.371 247.753 248.571 247.953 248.771 248.173C249.771 249.173 250.771 250.263 251.771 251.353C251.971 251.583 252.171 251.793 252.351 252.033C259.351 260.033 265.521 269.163 266.151 270.623C267.211 273.203 266.091 288.863 266.091 288.863Z" fill="white"/>
<path opacity="0.2" d="M235.25 239.172C230.397 238.839 225.526 238.823 220.67 239.122C211.676 239.671 202.655 239.597 193.67 238.902C189.58 238.722 194.08 229.052 201.42 225.212C207.265 222.026 212.814 218.325 218 214.152C224.58 225.182 230.39 236.642 235.25 239.172Z" fill="#4A4A4A"/>
<path opacity="0.2" d="M257.72 288.863H90.4102C98.9502 281.863 119.05 266.203 129.35 265.863C142.65 265.433 155.84 279.743 171.4 273.243C186.96 266.743 208.77 257.572 219.32 257.942C239.16 258.622 253.85 274.793 257.72 288.863Z" fill="#4A4A4A"/>
<path opacity="0.5" d="M432.8 267.073C432.8 267.073 409.44 234.283 403.6 230.693C397.76 227.103 375.76 232.933 360.93 232.933C346.1 232.933 337.58 253.863 328.6 257.633C319.62 261.403 289.07 289.073 289.07 289.073H440.88L432.8 267.073Z" fill="white"/>
<path d="M432.8 267.073C432.8 267.073 409.44 234.283 403.6 230.693C397.76 227.103 375.76 232.933 360.93 232.933C346.1 232.933 337.58 253.863 328.6 257.633C319.62 261.403 289.07 289.073 289.07 289.073H440.88L432.8 267.073Z" fill="#263238"/>
<path opacity="0.1" d="M432.8 267.073C432.8 267.073 409.44 234.283 403.6 230.693C397.76 227.103 375.76 232.933 360.93 232.933C346.1 232.933 337.58 253.863 328.6 257.633C319.62 261.403 289.07 289.073 289.07 289.073H440.88L432.8 267.073Z" fill="white"/>
<path opacity="0.2" d="M440.88 289.072H289.07C289.07 289.072 290.07 288.182 291.71 286.702C299.42 285.702 316.77 283.172 321.46 280.322C327.54 276.612 356.82 272.912 371.64 275.262C386.46 277.612 385.78 254.722 393.2 248.652C397.72 244.952 400.58 236.262 402.1 230.072C402.627 230.207 403.132 230.415 403.6 230.692C409.45 234.282 432.8 267.072 432.8 267.072L440.88 289.072Z" fill="#4A4A4A"/>
<path d="M183.67 15.102V31.542C183.67 32.3058 183.52 33.0621 183.227 33.7677C182.935 34.4733 182.506 35.1142 181.965 35.6538C181.425 36.1935 180.783 36.6212 180.077 36.9126C179.371 37.204 178.614 37.3533 177.85 37.352H159C158.049 37.3512 157.111 37.1177 156.27 36.672L151.65 39.412L153.91 34.342C153.437 33.4849 153.189 32.5213 153.19 31.542V15.102C153.19 13.5611 153.803 12.0833 154.892 10.9937C155.982 9.90413 157.459 9.29199 159 9.29199H177.88C179.418 9.29728 180.891 9.91175 181.976 11.0008C183.061 12.0898 183.67 13.5646 183.67 15.102Z" fill="#9F67FD"/>
<path opacity="0.7" d="M183.67 15.102V31.542C183.67 32.3058 183.52 33.0621 183.227 33.7677C182.935 34.4733 182.506 35.1142 181.965 35.6538C181.425 36.1935 180.783 36.6212 180.077 36.9126C179.371 37.204 178.614 37.3533 177.85 37.352H159C158.049 37.3512 157.111 37.1177 156.27 36.672L151.65 39.412L153.91 34.342C153.437 33.4849 153.189 32.5213 153.19 31.542V15.102C153.19 13.5611 153.803 12.0833 154.892 10.9937C155.982 9.90413 157.459 9.29199 159 9.29199H177.88C179.418 9.29728 180.891 9.91175 181.976 11.0008C183.061 12.0898 183.67 13.5646 183.67 15.102Z" fill="white"/>
<path d="M175.881 18.7416L164.881 29.7416L164.761 29.8516C164.625 30.0028 164.453 30.1165 164.261 30.1816C164.173 30.2265 164.079 30.2568 163.981 30.2716C163.888 30.282 163.794 30.282 163.701 30.2716C163.508 30.2712 163.317 30.2303 163.141 30.1516C163.046 30.1207 162.955 30.077 162.871 30.0216C162.787 29.9634 162.71 29.8963 162.641 29.8216L159.411 26.6016C159.138 26.3382 158.977 25.9803 158.961 25.6016C158.96 25.4017 158.998 25.2034 159.074 25.0184C159.15 24.8334 159.262 24.6653 159.403 24.5239C159.545 24.3825 159.713 24.2705 159.898 24.1946C160.083 24.1187 160.281 24.0803 160.481 24.0816C160.678 24.0801 160.874 24.1183 161.056 24.1939C161.238 24.2695 161.403 24.381 161.541 24.5216L163.701 26.6816L173.701 16.6816C173.986 16.3995 174.37 16.2412 174.771 16.2412C175.172 16.2412 175.556 16.3995 175.841 16.6816C176.105 16.9573 176.256 17.3222 176.263 17.7038C176.271 18.0855 176.134 18.456 175.881 18.7416Z" fill="#9F67FD"/>
<path d="M133.12 305.893L133.08 320.403L138.94 320.883L141.85 307.303L133.12 305.893Z" fill="#FF8B7B"/>
<path d="M137.24 319.513C137.24 319.513 139.1 315.983 140.18 316.363C141.26 316.743 141.7 321.033 141.7 321.033C141.7 321.033 147.61 323.033 149.26 323.143C150.91 323.253 152.26 324.143 152.44 327.413L132.27 327.353C132.27 327.353 132.42 320.073 132.46 318.833C132.5 317.593 134.28 319.143 134.28 319.143L137.24 319.513Z" fill="#263238"/>
<path d="M132.51 321.593C132.872 321.791 133.189 322.061 133.442 322.387C133.694 322.713 133.877 323.088 133.978 323.488C134.08 323.887 134.098 324.304 134.031 324.711C133.964 325.118 133.814 325.507 133.59 325.853C133.569 325.888 133.562 325.929 133.572 325.968C133.581 326.008 133.606 326.042 133.64 326.063C133.675 326.084 133.716 326.091 133.756 326.082C133.795 326.072 133.829 326.048 133.85 326.013C134.096 325.633 134.261 325.207 134.336 324.762C134.411 324.316 134.394 323.859 134.286 323.42C134.179 322.981 133.983 322.568 133.71 322.208C133.437 321.847 133.093 321.546 132.7 321.323C132.54 321.213 132.34 321.493 132.51 321.593Z" fill="white"/>
<path d="M132.46 326.192L148.29 326.402H151.97C152.17 326.402 152.22 326.082 151.97 326.082L136.15 325.872L132.47 325.822C132.26 325.822 132.22 326.142 132.47 326.142L132.46 326.192Z" fill="white"/>
<path d="M140.829 322.303C140.978 322.064 141.176 321.859 141.41 321.701C141.643 321.544 141.908 321.438 142.185 321.39C142.463 321.341 142.747 321.352 143.02 321.422C143.293 321.491 143.549 321.618 143.769 321.793C143.919 321.913 144.119 321.633 143.969 321.513C143.707 321.325 143.409 321.192 143.094 321.122C142.779 321.052 142.453 321.046 142.135 321.105C141.818 321.163 141.516 321.286 141.247 321.464C140.978 321.642 140.747 321.873 140.569 322.143C140.429 322.313 140.689 322.473 140.829 322.303Z" fill="white"/>
<path d="M142.5 322.862C142.649 322.623 142.847 322.418 143.081 322.261C143.314 322.103 143.579 321.997 143.856 321.949C144.134 321.901 144.418 321.912 144.691 321.981C144.964 322.051 145.22 322.177 145.44 322.352C145.59 322.472 145.79 322.192 145.64 322.072C145.378 321.884 145.08 321.751 144.765 321.681C144.45 321.611 144.124 321.605 143.806 321.664C143.489 321.723 143.187 321.845 142.918 322.024C142.648 322.202 142.418 322.433 142.24 322.702C142.1 322.872 142.35 323.032 142.5 322.862Z" fill="white"/>
<path d="M144.221 323.363C144.37 323.122 144.568 322.916 144.802 322.757C145.037 322.599 145.302 322.492 145.581 322.444C145.86 322.396 146.146 322.407 146.42 322.478C146.694 322.548 146.95 322.676 147.171 322.853C147.321 322.973 147.511 322.693 147.361 322.573C147.099 322.385 146.802 322.252 146.488 322.182C146.174 322.112 145.848 322.106 145.532 322.165C145.215 322.224 144.914 322.346 144.645 322.525C144.377 322.703 144.148 322.933 143.971 323.203C143.821 323.373 144.081 323.533 144.221 323.363Z" fill="white"/>
<path d="M122.689 160.503C122.979 163.083 123.009 171.043 123.569 175.293C124.619 183.393 126.009 193.893 127.219 204.413C128.629 216.593 129.799 228.813 129.919 237.323C130.219 259.173 132.569 311.883 132.569 311.883L142.029 311.433C142.029 311.433 150.979 258.433 152.029 236.253C152.889 217.833 149.679 170.653 148.839 159.253L122.689 160.503Z" fill="#9F67FD"/>
<path opacity="0.2" d="M123.57 175.293C124.62 183.393 126.01 193.893 127.22 204.413C131.22 190.413 125.88 169.783 125.88 169.783L123.57 175.293Z" fill="#4A4A4A"/>
<path d="M131.771 314.283L142.881 313.753L143.521 310.173L131.311 310.613L131.771 314.283Z" fill="#263238"/>
<path d="M83.1098 303.723L81.5898 318.163L87.3798 319.243L91.6498 306.023L83.1098 303.723Z" fill="#FF8B7B"/>
<path d="M85.8191 317.703C85.8191 317.703 87.9991 314.373 89.0691 314.863C90.1391 315.353 90.0691 319.673 90.0691 319.673C90.0691 319.673 95.7391 322.253 97.3691 322.533C98.9991 322.813 100.229 323.873 100.109 327.103L80.0391 324.993C80.0391 324.993 80.9391 317.763 81.1091 316.533C81.2791 315.303 82.8791 317.033 82.8791 317.033L85.8191 317.703Z" fill="#263238"/>
<path d="M80.9 319.283C81.2401 319.517 81.5282 319.818 81.7465 320.168C81.9648 320.518 82.1084 320.91 82.1685 321.318C82.2285 321.726 82.2037 322.143 82.0956 322.541C81.9875 322.939 81.7983 323.311 81.54 323.633C81.5161 323.665 81.5059 323.705 81.5115 323.744C81.5171 323.783 81.5382 323.819 81.57 323.843C81.6018 323.867 81.6418 323.877 81.6812 323.871C81.7206 323.866 81.7561 323.845 81.78 323.813C82.0641 323.461 82.2732 323.055 82.3943 322.619C82.5154 322.184 82.546 321.728 82.4841 321.28C82.4223 320.832 82.2693 320.402 82.0347 320.015C81.8001 319.629 81.4888 319.294 81.12 319.033C80.97 318.913 80.74 319.163 80.9 319.283Z" fill="white"/>
<path d="M80.3894 323.863L96.1094 325.683L99.7594 326.103C99.9694 326.103 100.039 325.813 99.8394 325.793L84.1194 323.963L80.4594 323.543C80.2594 323.543 80.1794 323.833 80.3894 323.863Z" fill="white"/>
<path d="M89.0995 320.863C89.2718 320.636 89.4905 320.449 89.741 320.314C89.9915 320.178 90.268 320.098 90.552 320.078C90.8359 320.058 91.1209 320.099 91.3878 320.198C91.6547 320.297 91.8973 320.452 92.0995 320.653C92.2395 320.783 92.4595 320.533 92.3295 320.393C92.0874 320.179 91.8046 320.015 91.4979 319.913C91.1912 319.811 90.8671 319.772 90.5449 319.798C90.2227 319.824 89.9091 319.915 89.6229 320.065C89.3367 320.216 89.0839 320.422 88.8795 320.673C88.7295 320.823 88.9695 321.013 89.1195 320.863H89.0995Z" fill="white"/>
<path d="M90.7103 321.532C90.8881 321.314 91.109 321.134 91.3592 321.004C91.6093 320.874 91.8835 320.797 92.1647 320.777C92.446 320.757 92.7282 320.796 92.9941 320.889C93.2599 320.983 93.5037 321.131 93.7103 321.322C93.8503 321.462 94.0703 321.212 93.9403 321.072C93.6982 320.858 93.4153 320.695 93.1087 320.593C92.802 320.491 92.4778 320.451 92.1556 320.478C91.8334 320.504 91.5198 320.595 91.2337 320.745C90.9475 320.895 90.6946 321.102 90.4903 321.352C90.3303 321.502 90.5703 321.682 90.7303 321.532H90.7103Z" fill="white"/>
<path d="M92.3703 322.243C92.5426 322.016 92.7613 321.829 93.0118 321.694C93.2623 321.558 93.5387 321.478 93.8227 321.458C94.1067 321.438 94.3917 321.479 94.6586 321.578C94.9255 321.678 95.1681 321.832 95.3703 322.033C95.5103 322.163 95.7303 321.913 95.6003 321.773C95.3591 321.559 95.077 321.396 94.7712 321.294C94.4653 321.192 94.1419 321.153 93.8206 321.179C93.4992 321.205 93.1864 321.296 92.9011 321.446C92.6157 321.596 92.3638 321.803 92.1603 322.053C92.0003 322.203 92.2403 322.393 92.3903 322.243H92.3703Z" fill="white"/>
<path d="M113.451 240.032C108.631 261.732 91.2105 309.032 91.2105 309.032L81.8105 307.862C81.8105 307.862 91.3306 260.002 93.6606 238.272C94.9006 226.702 98.0405 173.652 98.8405 160.402L130.271 161.702C129.151 173.082 117.441 222.032 113.451 240.042V240.032Z" fill="#9F67FD"/>
<path d="M80.9497 308.082L91.9797 309.462L93.2297 306.042L80.9297 304.402L80.9497 308.082Z" fill="#263238"/>
<path d="M97 160.473C97 161.863 99.91 164.863 101.29 164.863L149.92 163.353C151.38 163.353 153.04 162.263 152.92 160.813C151.59 143.613 144.71 84.5532 143.18 80.8732C141.29 76.3632 131.97 75.1632 127.92 74.9832C121.524 74.8522 115.126 75.1495 108.77 75.8732C105.67 76.1732 102.84 76.5832 100.5 76.9932C96.94 77.6032 97.63 81.0732 97.76 84.6832C97.96 90.3232 97.76 97.8932 98.36 104.383C98.36 104.713 98.43 105.023 98.46 105.383C98.68 107.623 98.88 109.833 99 112.023C99 112.453 99.06 112.903 99.07 113.333C99.94 135.563 97.57 146.623 97 160.473Z" fill="white"/>
<path d="M116.63 165.142C110.15 165.852 92.95 166.282 92.82 163.572C92.6 159.052 97.27 127.472 97.55 121.182C97.55 120.182 97.62 118.922 97.64 117.362C97.64 114.482 97.64 110.732 97.64 106.702C97.52 94.1624 97.17 78.9325 97.17 78.9325C97.17 78.9325 97.39 75.4724 112.53 75.4824C112.53 75.4824 117.18 93.6625 118.1 109.822C119.02 125.982 118.82 164.862 116.63 165.142Z" fill="#263238"/>
<path d="M127.93 74.9326C127.93 74.9326 135.44 92.2326 135.99 118.933C136.54 145.633 137.16 165.103 137.16 165.103C137.16 165.103 153.16 165.323 154.43 162.873C155.13 161.533 152.15 138.353 150.43 124.763C148.48 109.293 144.84 83.9026 143.79 80.8826C142 75.6826 127.93 74.9326 127.93 74.9326Z" fill="#263238"/>
<path opacity="0.2" d="M105.241 95.583L97.6406 117.363C97.6406 114.483 97.6406 110.733 97.6406 106.703L105.241 95.583Z" fill="#4A4A4A"/>
<path d="M115.1 55.0327C115.1 55.0327 111.1 53.0327 111.3 51.2327C111.5 49.4327 112.54 49.9427 112.54 49.9427C112.54 49.9427 110.17 45.7127 112.3 44.8827C114.43 44.0527 114.61 44.7727 114.61 44.7727C114.61 44.7727 113.61 41.2827 115.28 40.1527C116.55 39.2827 117.17 40.8827 117.17 40.8827C117.17 40.8827 119.53 36.3027 122.29 36.6627C122.574 36.703 122.847 36.8014 123.092 36.9517C123.336 37.1021 123.547 37.3013 123.712 37.5368C123.876 37.7723 123.99 38.0391 124.046 38.3205C124.103 38.602 124.101 38.8921 124.04 39.1727C124.04 39.1727 129.58 36.7327 132.44 38.2627C135.3 39.7927 132.59 41.2627 132.59 41.2627C132.59 41.2627 140.21 40.7927 140.52 42.8527C140.83 44.9127 138.1 45.9227 138.1 45.9227C138.1 45.9227 141.53 47.2827 140.5 49.8627C140.428 50.1801 140.275 50.4733 140.056 50.7137C139.836 50.9541 139.559 51.1335 139.249 51.2342C138.94 51.335 138.609 51.3538 138.291 51.2887C137.972 51.2235 137.675 51.0768 137.43 50.8627C137.43 50.8627 140.09 54.8627 137.95 55.6327C135.81 56.4027 133.11 52.0127 133.11 52.0127L115.1 55.0327Z" fill="#263238"/>
<path d="M126.861 41.5628C125.073 41.1974 123.229 41.2032 121.443 41.5799C119.658 41.9566 117.969 42.6962 116.481 43.7528C114.541 45.1628 112.961 47.1228 113.381 49.6428C114.461 54.8721 115.834 60.0368 117.491 65.1128L136.001 52.5828C136.001 52.5828 138.661 48.9728 134.001 44.5828C132.491 43.1428 129.531 42.0828 126.861 41.5628Z" fill="#263238"/>
<path d="M126.859 78.3523C126.715 77.817 126.608 77.2724 126.539 76.7223C126.458 76.0354 126.441 75.3423 126.489 74.6523L127.249 71.2123C127.248 71.189 127.248 71.1656 127.249 71.1423L121.439 65.3623L117.439 61.3623C117.869 65.7323 116.789 71.1623 115.439 75.8123C115.789 77.8623 125.629 82.8623 126.859 78.3523Z" fill="#FF8B7B"/>
<path d="M124.231 80.1729C121.781 78.8829 119.071 75.4229 116.381 72.1729C115.578 72.4226 114.865 72.9025 114.332 73.553C113.799 74.2036 113.468 74.9962 113.381 75.8329L116.091 83.5928L124.231 80.1729Z" fill="white"/>
<path d="M126.49 74.6523C126.285 76.6718 125.501 78.5889 124.23 80.1723L128.99 83.4424L129.99 77.9124C129.032 76.6218 127.846 75.517 126.49 74.6523Z" fill="white"/>
<g opacity="0.2">
<path d="M127.249 71.213L126.489 74.653C124.349 73.783 122.059 71.803 121.489 69.583C121.069 67.983 121.729 66.443 122.379 66.333L127.249 71.213Z" fill="#4A4A4A"/>
</g>
<path d="M135.46 63.7229C135.3 64.4729 135.1 65.2129 134.9 65.9429C133.04 72.3829 125.22 73.2829 120.15 68.8029C119.691 68.3954 119.263 67.9541 118.87 67.4828C115.6 63.4828 116.25 60.3629 116.43 53.2229C116.454 51.5651 116.901 49.9411 117.73 48.5048C118.558 47.0685 119.739 45.8677 121.162 45.0162C122.584 44.1647 124.201 43.6908 125.858 43.6394C127.515 43.5881 129.157 43.961 130.63 44.7229C136.7 47.8629 137.16 56.2329 135.46 63.7229Z" fill="#FF8B7B"/>
<path d="M128 56.0325C128 56.5925 128.21 57.0325 128.57 57.1025C128.93 57.1725 129.28 56.7125 129.32 56.1025C129.36 55.4925 129.12 55.1025 128.75 55.0325C128.38 54.9625 128.05 55.4225 128 55.9825" fill="#263238"/>
<path d="M131.001 64.8632H131.191C131.219 64.8609 131.246 64.8527 131.271 64.839C131.296 64.8253 131.318 64.8065 131.335 64.7838C131.352 64.7611 131.364 64.735 131.37 64.7074C131.376 64.6797 131.376 64.651 131.371 64.6232C131.361 64.5684 131.331 64.5193 131.286 64.4859C131.242 64.4525 131.186 64.4372 131.131 64.4432C130.72 64.5004 130.302 64.4735 129.902 64.3642C129.502 64.2548 129.128 64.0654 128.804 63.8073C128.479 63.5491 128.211 63.2277 128.014 62.8626C127.818 62.4975 127.697 62.0962 127.661 61.6832C127.657 61.6558 127.648 61.6294 127.634 61.6057C127.62 61.582 127.601 61.5616 127.578 61.5456C127.555 61.5296 127.53 61.5185 127.503 61.5129C127.476 61.5073 127.448 61.5074 127.421 61.5132C127.393 61.5168 127.366 61.526 127.342 61.5401C127.318 61.5542 127.297 61.573 127.28 61.5954C127.264 61.6177 127.251 61.6432 127.245 61.6703C127.238 61.6974 127.236 61.7256 127.241 61.7532C127.339 62.659 127.787 63.4907 128.489 64.0714C129.192 64.6522 130.092 64.9362 131.001 64.8632Z" fill="#263238"/>
<path d="M116.36 53.8628C116.36 53.8628 118.51 53.8628 118.68 55.7028C118.85 57.5428 118.68 57.7928 118.68 57.7928H118.95C119.219 57.7983 119.485 57.7432 119.73 57.6317C119.974 57.5202 120.19 57.355 120.362 57.1485C120.534 56.9419 120.657 56.6994 120.723 56.4387C120.788 56.1781 120.794 55.906 120.74 55.6428C120.46 54.1428 120.37 52.4328 121.41 52.4428C123.26 52.4428 120.41 48.5328 122.88 47.6828C125.57 46.7828 132.59 46.1228 135.53 50.3028C134.886 47.7207 133.321 45.4626 131.13 43.9528C127.64 41.8128 120.81 41.6328 118.2 45.0928C115.59 48.5528 116.36 53.8628 116.36 53.8628Z" fill="#263238"/>
<path d="M113.001 57.6729C113.175 58.5436 113.519 59.3716 114.013 60.1094C114.507 60.8472 115.142 61.4804 115.881 61.9729C117.881 63.2729 119.581 61.6729 119.631 59.4129C119.631 57.4129 118.631 54.2729 116.401 53.8729C115.898 53.7841 115.381 53.8251 114.898 53.992C114.416 54.1589 113.984 54.4463 113.643 54.8268C113.303 55.2073 113.065 55.6684 112.953 56.1664C112.84 56.6645 112.857 57.183 113.001 57.6729Z" fill="#FF8B7B"/>
<path d="M133.82 56.4228C133.82 56.9828 134.03 57.4228 134.4 57.4928C134.77 57.5628 135.1 57.0928 135.15 56.5428C135.2 55.9928 134.94 55.5428 134.57 55.4628C134.2 55.3828 133.87 55.8628 133.82 56.4628" fill="#263238"/>
<path d="M135.85 55.0529C135.8 55.0463 135.753 55.026 135.714 54.9942C135.675 54.9624 135.646 54.9204 135.63 54.8729C135.571 54.6815 135.475 54.504 135.346 54.351C135.217 54.1981 135.058 54.0728 134.88 53.9829C134.506 53.8406 134.093 53.8406 133.72 53.9829C133.649 54.0094 133.571 54.0075 133.502 53.9777C133.433 53.9478 133.379 53.8923 133.35 53.8229C133.335 53.7882 133.328 53.7509 133.328 53.7132C133.328 53.6756 133.336 53.6384 133.351 53.6039C133.366 53.5693 133.388 53.5382 133.415 53.5122C133.442 53.4863 133.474 53.4661 133.51 53.4529C134.025 53.254 134.595 53.254 135.11 53.4529C135.349 53.5767 135.562 53.7477 135.733 53.9557C135.905 54.1636 136.033 54.4042 136.11 54.6629C136.136 54.7319 136.134 54.8084 136.104 54.8758C136.074 54.9432 136.018 54.996 135.95 55.0229C135.919 55.0395 135.885 55.0497 135.85 55.0529Z" fill="#263238"/>
<path d="M126.571 54.6123C126.523 54.6173 126.475 54.6099 126.431 54.5909C126.387 54.5719 126.348 54.5419 126.319 54.5037C126.29 54.4656 126.271 54.4206 126.264 54.373C126.258 54.3255 126.263 54.2771 126.281 54.2323C126.489 53.7187 126.881 53.3014 127.381 53.0623C127.637 52.9616 127.912 52.9149 128.187 52.9252C128.462 52.9356 128.733 53.0027 128.981 53.1223C129.016 53.1356 129.048 53.1557 129.075 53.1817C129.103 53.2076 129.124 53.2388 129.139 53.2733C129.154 53.3079 129.162 53.3451 129.162 53.3827C129.163 53.4203 129.155 53.4576 129.141 53.4923C129.11 53.56 129.055 53.6132 128.986 53.6411C128.917 53.6691 128.84 53.6695 128.771 53.6423C128.591 53.5546 128.396 53.5041 128.197 53.4938C127.998 53.4835 127.798 53.5136 127.611 53.5823C127.251 53.7609 126.967 54.0625 126.811 54.4323C126.792 54.482 126.759 54.5253 126.717 54.5572C126.674 54.5891 126.624 54.6082 126.571 54.6123Z" fill="#263238"/>
<path d="M131.199 57.0225C131.961 58.5298 132.629 60.0827 133.199 61.6725C133.319 62.3225 131.199 62.4125 131.199 62.4125V57.0225Z" fill="#FF5652"/>
<path d="M116.38 72.2128C116.38 72.2128 111.03 71.3328 110.08 75.8028L110.79 90.3528L114.02 94.0128L111.73 96.5328L112.57 115.243L118.3 116.863C118.16 111.653 118.56 102.273 116.59 88.5228C115.853 83.1152 115.782 77.6376 116.38 72.2128Z" fill="#263238"/>
<path opacity="0.2" d="M116.38 72.2128C116.38 72.2128 111.03 71.3328 110.08 75.8028L110.79 90.3528L114.02 94.0128L111.73 96.5328L112.57 115.243L118.3 116.863C118.16 111.653 118.56 102.273 116.59 88.5228C115.853 83.1152 115.782 77.6376 116.38 72.2128Z" fill="white"/>
<path d="M126.49 74.6526C126.49 74.6526 129.1 77.0626 130.62 82.7726C132.14 88.4826 135.85 113.603 135.93 116.773L141.31 112.323L138.08 92.3926L134.67 90.5026L137.27 86.7126C137.27 86.7126 134.27 77.6326 132.52 75.3726C130.77 73.1126 126.91 72.6826 126.91 72.6826L126.49 74.6526Z" fill="#263238"/>
<path opacity="0.2" d="M126.49 74.6526C126.49 74.6526 129.1 77.0626 130.62 82.7726C132.14 88.4826 135.85 113.603 135.93 116.773L141.31 112.323L138.08 92.3926L134.67 90.5026L137.27 86.7126C137.27 86.7126 134.27 77.6326 132.52 75.3726C130.77 73.1126 126.91 72.6826 126.91 72.6826L126.49 74.6526Z" fill="white"/>
<path d="M95.1707 80.9823C92.1707 86.7323 89.4707 92.5923 86.7907 98.4723C85.4407 101.402 84.1407 104.362 82.7907 107.302L80.8507 111.712L79.8507 113.862L79.3707 114.862L79.1407 115.352C79.0607 115.522 79.0407 115.602 78.9807 115.732L78.8607 116.082L78.7707 116.362C78.7107 116.562 78.6607 116.732 78.6207 116.882L78.5007 117.332C78.2407 118.472 78.1107 119.332 77.9807 120.272C77.8507 121.212 77.7507 122.032 77.6707 122.882C77.4907 124.582 77.3407 126.242 77.2407 127.882C77.0307 131.192 76.8707 134.472 76.7907 137.742C76.6007 144.292 76.5607 150.802 76.7907 157.362C76.8209 158.263 77.1817 159.122 77.8044 159.774C78.4271 160.426 79.268 160.826 80.1667 160.898C81.0655 160.969 81.9592 160.708 82.6774 160.163C83.3956 159.618 83.888 158.827 84.0607 157.942C85.3207 151.592 86.4307 145.202 87.5507 138.862C88.1307 135.702 88.6607 132.542 89.2607 129.432C89.5707 127.872 89.8607 126.332 90.1807 124.832C90.3407 124.082 90.5107 123.352 90.6807 122.652C90.8507 121.952 91.0407 121.282 91.2007 120.852L91.2607 120.722V120.662V120.732V120.832L91.1707 121.052V121.002L91.2507 120.852L91.4307 120.552L91.7707 119.942L92.9907 117.752L95.3407 113.452C96.8607 110.572 98.3407 107.712 99.8607 104.822C102.861 99.0423 105.701 93.2423 108.361 87.3223C109.138 85.5725 109.203 83.5891 108.544 81.7918C107.884 79.9944 106.551 78.5244 104.827 77.6927C103.102 76.861 101.122 76.733 99.3046 77.3358C97.4874 77.9386 95.9761 79.2248 95.0907 80.9223L95.1707 80.9823Z" fill="#263238"/>
<path d="M69.5507 175.992L69.2607 169.992C69.2581 169.943 69.2653 169.894 69.2821 169.847C69.2988 169.8 69.3248 169.758 69.3583 169.721C69.3919 169.685 69.4324 169.656 69.4775 169.635C69.5226 169.615 69.5713 169.604 69.6207 169.602L72.8707 169.442L72.8207 168.442L69.5707 168.602C69.3947 168.611 69.2221 168.655 69.063 168.731C68.9038 168.806 68.7611 168.913 68.6432 169.044C68.5252 169.175 68.4342 169.328 68.3755 169.494C68.3167 169.66 68.2913 169.836 68.3007 170.012L68.5907 176.012L69.5507 175.992Z" fill="#263238"/>
<path d="M91.72 168.933L92.01 174.933L93.01 174.883L92.73 168.883C92.7093 168.527 92.5501 168.194 92.2864 167.955C92.0228 167.715 91.6758 167.589 91.32 167.603L88 167.763V168.763L91.25 168.603C91.3028 168.589 91.3579 168.588 91.4114 168.598C91.465 168.608 91.5158 168.629 91.5603 168.66C91.6049 168.692 91.6422 168.732 91.6698 168.779C91.6973 168.826 91.7145 168.878 91.72 168.933Z" fill="#263238"/>
<path d="M105.83 176.783L107.29 206.963C107.32 207.636 107.082 208.294 106.629 208.792C106.175 209.291 105.543 209.589 104.87 209.623L61.31 211.733C60.6369 211.763 59.9792 211.525 59.4808 211.072C58.9824 210.618 58.6837 209.986 58.65 209.313L57.19 179.133C57.1601 178.46 57.3978 177.802 57.8513 177.304C58.3047 176.805 58.937 176.507 59.61 176.473L103.17 174.373C103.842 174.34 104.5 174.576 104.999 175.028C105.497 175.48 105.796 176.111 105.83 176.783Z" fill="#263238"/>
<g opacity="0.5">
<path d="M105.83 176.783L107.29 206.963C107.32 207.636 107.082 208.294 106.629 208.792C106.175 209.291 105.543 209.589 104.87 209.623L61.31 211.733C60.6369 211.763 59.9792 211.525 59.4808 211.072C58.9824 210.618 58.6837 209.986 58.65 209.313L57.19 179.133C57.1601 178.46 57.3978 177.802 57.8513 177.304C58.3047 176.805 58.937 176.507 59.61 176.473L103.17 174.373C103.842 174.34 104.5 174.576 104.999 175.028C105.497 175.48 105.796 176.111 105.83 176.783Z" fill="white"/>
</g>
<path d="M99.2832 174.567L97.3555 174.66L99.0548 209.909L100.983 209.816L99.2832 174.567Z" fill="#263238"/>
<path d="M65.3614 176.198L63.4336 176.291L65.1329 211.54L67.0607 211.447L65.3614 176.198Z" fill="#263238"/>
<path d="M83.5293 159.303C83.5293 159.303 86.9793 166.183 86.7093 167.793C86.4393 169.403 84.1893 166.563 84.1893 166.563L83.5293 159.303Z" fill="#FF8B7B"/>
<path d="M88.952 166.6L71.4023 167.446L71.5574 170.663L89.107 169.817L88.952 166.6Z" fill="#263238"/>
<path opacity="0.3" d="M88.952 166.6L71.4023 167.446L71.5574 170.663L89.107 169.817L88.952 166.6Z" fill="white"/>
<path d="M77.0806 158.552L75.0006 165.862C74.6106 167.942 81.3606 170.612 83.8306 168.722C85.8306 167.232 83.6306 159.002 83.6306 159.002C82.6588 158.398 81.5535 158.04 80.4116 157.962C79.2697 157.883 78.126 158.086 77.0806 158.552Z" fill="#FF8B7B"/>
<path d="M74.9992 165.862C74.5992 168.172 75.1092 172.632 78.7792 172.912C79.5841 173.011 80.399 172.994 81.1992 172.862C81.9321 173.127 82.7296 173.155 83.4792 172.942C85.2792 172.272 84.3792 167.692 84.3792 167.692L74.9992 165.862Z" fill="#FF8B7B"/>
<path d="M180.291 75.4729C180.287 75.7509 180.263 76.0282 180.221 76.3029C180.177 76.6199 180.113 76.9338 180.031 77.2429C179.946 77.5182 179.846 77.7886 179.731 78.0529C179.621 78.2929 179.501 78.5329 179.371 78.7629C179.154 79.1101 178.917 79.444 178.661 79.7629C178.451 79.9929 178.221 80.2429 178.001 80.4429C177.781 80.6429 177.621 80.7729 177.431 80.9329L176.921 81.3029C175.94 81.9528 174.894 82.499 173.801 82.9329C172.891 83.3029 172.051 83.5929 171.231 83.8529C169.591 84.3829 168.021 84.8529 166.451 85.1729C163.331 85.9029 160.271 86.4929 157.201 86.9829C154.131 87.4729 151.091 87.9029 148.031 88.2529L146.901 88.3629C146.371 88.4329 145.841 88.4829 145.311 88.5329C143.171 88.7529 141.021 88.9263 138.861 89.0529L137.131 76.4729C142.961 75.7929 149.671 75.6429 155.501 74.9229C158.411 74.5329 161.331 74.1729 164.121 73.6829C164.961 73.5229 165.801 73.3829 166.611 73.2229C164.751 71.4029 162.611 69.6329 160.611 67.8529C158.341 65.9629 156.031 64.0629 153.691 62.1929C151.351 60.3229 148.991 58.4229 146.691 56.5229L149.461 52.0029C155.048 54.5903 160.487 57.4882 165.751 60.6829C168.469 62.3117 171.102 64.0773 173.641 65.9729C175.069 67.0413 176.407 68.2253 177.641 69.5129C178.031 69.9334 178.395 70.3776 178.731 70.8429C179.245 71.5344 179.66 72.2953 179.961 73.1029C180.201 73.8692 180.313 74.6701 180.291 75.4729Z" fill="#263238"/>
<path opacity="0.2" d="M146.9 88.3625C146.37 88.4325 145.84 88.4825 145.31 88.5325L144.26 82.2725L146.9 88.3625Z" fill="#4A4A4A"/>
<path d="M134.12 51.3925C135.171 51.888 136.27 52.2734 137.4 52.5425C139.25 53.0525 141.1 53.4625 141.1 53.4625C141.1 53.4625 144.61 57.2625 147.22 56.4625C147.357 56.417 147.49 56.3636 147.62 56.3025C149.54 55.3525 149.26 52.5925 149.19 52.0225C149.19 51.9625 149.19 51.9225 149.19 51.9225C148.02 51.6825 146.67 51.4425 145.3 51.2425C142.456 50.7309 139.57 50.4932 136.68 50.5325C133.62 50.8625 132.63 50.5425 134.12 51.3925Z" fill="#FF8B7B"/>
<path d="M121.42 81.3629L125.26 88.3029L126.84 81.9629L124.23 80.1729L121.42 81.3629Z" fill="#9F67FD"/>
<path d="M123.91 85.8527L124.28 129.553L129.19 139.193L132.5 128.903L125.89 85.7627L123.91 85.8527Z" fill="#9F67FD"/>
</svg>
