<svg width="60" height="60" viewBox="0 0 60 60" fill="none" xmlns="http://www.w3.org/2000/svg">
<path d="M44.6025 39.1475L45.0425 39.59L45.4875 39.1475C46.0098 38.6252 46.6299 38.2108 47.3124 37.9281C47.9949 37.6455 48.7263 37.5 49.465 37.5C50.2037 37.5 50.9351 37.6455 51.6176 37.9281C52.3001 38.2108 52.9202 38.6252 53.4425 39.1475C53.9648 39.6698 54.3792 40.2899 54.6619 40.9724C54.9445 41.6549 55.09 42.3863 55.09 43.125C55.09 43.8637 54.9445 44.5951 54.6619 45.2776C54.3792 45.9601 53.9648 46.5802 53.4425 47.1025L45.0425 55.5L36.6475 47.1025C35.5926 46.0476 35 44.6169 35 43.125C35 41.6331 35.5926 40.2024 36.6475 39.1475C37.7024 38.0926 39.1331 37.5 40.625 37.5C42.1169 37.5 43.5476 38.0926 44.6025 39.1475ZM30 35V40C26.0218 40 22.2064 41.5803 19.3934 44.3934C16.5804 47.2064 15 51.0218 15 55H10C10.0001 49.8039 12.0223 44.8119 15.6387 41.0807C19.255 37.3496 24.1815 35.1724 29.375 35.01L30 35ZM30 2.5C38.2875 2.5 45 9.2125 45 17.5C45.0014 21.3813 43.4977 25.112 40.8052 27.9075C38.1127 30.7031 34.4411 32.3457 30.5625 32.49L30 32.5C21.7125 32.5 15 25.7875 15 17.5C14.9986 13.6187 16.5023 9.88802 19.1948 7.09247C21.8873 4.29693 25.5589 2.6543 29.4375 2.51L30 2.5ZM30 7.5C24.475 7.5 20 11.975 20 17.5C20 23.025 24.475 27.5 30 27.5C35.525 27.5 40 23.025 40 17.5C40 11.975 35.525 7.5 30 7.5Z" fill="#9F67FD"/>
</svg>
