<svg width="28" height="28" viewBox="0 0 28 28" fill="none" xmlns="http://www.w3.org/2000/svg">
<path d="M14 25.2584C13.6383 25.2584 13.2883 25.2117 12.9967 25.1067C8.54 23.5784 1.45833 18.1534 1.45833 10.1384C1.45833 6.05503 4.75999 2.7417 8.81999 2.7417C10.7917 2.7417 12.635 3.5117 14 4.88837C15.365 3.5117 17.2083 2.7417 19.18 2.7417C23.24 2.7417 26.5417 6.0667 26.5417 10.1384C26.5417 18.165 19.46 23.5784 15.0033 25.1067C14.7117 25.2117 14.3617 25.2584 14 25.2584ZM8.81999 4.4917C5.72833 4.4917 3.20833 7.02337 3.20833 10.1384C3.20833 18.1067 10.8733 22.54 13.5683 23.4617C13.7783 23.5317 14.2333 23.5317 14.4433 23.4617C17.1267 22.54 24.8033 18.1184 24.8033 10.1384C24.8033 7.02337 22.2833 4.4917 19.1917 4.4917C17.4183 4.4917 15.7733 5.32003 14.7117 6.75503C14.385 7.19837 13.6383 7.19837 13.3117 6.75503C12.2267 5.30837 10.5933 4.4917 8.81999 4.4917Z" fill="#2E2E2E"/>
</svg>
