<svg width="61" height="60" viewBox="0 0 61 60" fill="none" xmlns="http://www.w3.org/2000/svg">
<g clip-path="url(#clip0_2295_6457)">
<path d="M8.40248 11.1725C11.3026 8.27186 15.1925 6.57526 19.2915 6.42317C23.3905 6.27108 27.3953 7.67476 30.5025 10.3525C33.6069 7.67922 37.6064 6.27712 41.7005 6.42695C45.7946 6.57678 49.681 8.26747 52.5817 11.1606C55.4823 14.0536 57.1832 17.9356 57.3437 22.0293C57.5043 26.1229 56.1127 30.1262 53.4475 33.2375L34.035 52.7125C33.1431 53.6047 31.9469 54.1268 30.6863 54.1741C29.4256 54.2214 28.1937 53.7904 27.2375 52.9675L26.9625 52.715L7.55248 33.2375C4.88871 30.1289 3.49643 26.1293 3.65402 22.0385C3.81161 17.9477 5.50745 14.0671 8.40248 11.1725ZM11.9375 14.7075C9.89309 16.7525 8.71462 19.5062 8.64665 22.397C8.57869 25.2878 9.62645 28.0938 11.5725 30.2325L11.9375 30.6175L30.5 49.18L43.7575 35.92L34.92 27.0825L32.27 29.7325C31.5737 30.4292 30.7469 30.9819 29.837 31.3591C28.9271 31.7362 27.9517 31.9304 26.9668 31.9307C24.9775 31.9311 23.0695 31.1414 21.6625 29.735C20.2555 28.3287 19.4648 26.4211 19.4643 24.4318C19.4639 22.4425 20.2537 20.5345 21.66 19.1275L26.915 13.87C24.8237 12.201 22.206 11.3318 19.5317 11.4184C16.8574 11.505 14.3015 12.5417 12.3225 14.3425L11.9375 14.7075ZM33.1525 21.7775C33.6213 21.3089 34.2571 21.0456 34.92 21.0456C35.5829 21.0456 36.2187 21.3089 36.6875 21.7775L47.2925 32.3825L49.0625 30.6175C51.1411 28.5404 52.3245 25.7323 52.3596 22.7939C52.3946 19.8556 51.2785 17.0201 49.25 14.8939C47.2215 12.7678 44.4416 11.5197 41.5048 11.4167C38.5681 11.3136 35.7075 12.3638 33.535 14.3425L33.1525 14.7075L25.1975 22.6625C24.7642 23.0956 24.5049 23.6727 24.469 24.2842C24.433 24.8958 24.6229 25.4992 25.0025 25.98L25.1975 26.1975C25.6305 26.6309 26.2076 26.8901 26.8191 26.9261C27.4307 26.962 28.0342 26.7722 28.515 26.3925L28.7325 26.1975L33.1525 21.7775Z" fill="#9F67FD"/>
</g>
<defs>
<clipPath id="clip0_2295_6457">
<rect width="60" height="60" fill="white" transform="translate(0.5)"/>
</clipPath>
</defs>
</svg>
