<svg width="28" height="28" viewBox="0 0 28 28" fill="none" xmlns="http://www.w3.org/2000/svg">
<path d="M17.5002 15.1084H9.3335C8.85516 15.1084 8.4585 14.7117 8.4585 14.2334C8.4585 13.7551 8.85516 13.3584 9.3335 13.3584H17.5002C17.9785 13.3584 18.3752 13.7551 18.3752 14.2334C18.3752 14.7117 17.9785 15.1084 17.5002 15.1084Z" fill="#2E2E2E"/>
<path d="M14.4435 19.7749H9.3335C8.85516 19.7749 8.4585 19.3782 8.4585 18.8999C8.4585 18.4216 8.85516 18.0249 9.3335 18.0249H14.4435C14.9218 18.0249 15.3185 18.4216 15.3185 18.8999C15.3185 19.3782 14.9218 19.7749 14.4435 19.7749Z" fill="#2E2E2E"/>
<path d="M16.3335 7.87516H11.6668C10.5468 7.87516 8.4585 7.87516 8.4585 4.66683C8.4585 1.4585 10.5468 1.4585 11.6668 1.4585H16.3335C17.4535 1.4585 19.5418 1.4585 19.5418 4.66683C19.5418 5.78683 19.5418 7.87516 16.3335 7.87516ZM11.6668 3.2085C10.5118 3.2085 10.2085 3.2085 10.2085 4.66683C10.2085 6.12516 10.5118 6.12516 11.6668 6.12516H16.3335C17.7918 6.12516 17.7918 5.82183 17.7918 4.66683C17.7918 3.2085 17.4885 3.2085 16.3335 3.2085H11.6668Z" fill="#2E2E2E"/>
<path d="M17.5 26.5417H10.5C3.94333 26.5417 2.625 23.5317 2.625 18.6667V11.6667C2.625 6.34667 4.55 4.07167 9.28667 3.82667C9.75333 3.80334 10.185 4.165 10.2083 4.655C10.2317 5.145 9.85833 5.54167 9.38 5.565C6.06667 5.75167 4.375 6.74334 4.375 11.6667V18.6667C4.375 22.9833 5.22667 24.7917 10.5 24.7917H17.5C22.7733 24.7917 23.625 22.9833 23.625 18.6667V11.6667C23.625 6.74334 21.9333 5.75167 18.62 5.565C18.1417 5.54167 17.7683 5.12167 17.7917 4.64334C17.815 4.165 18.235 3.79167 18.7133 3.815C23.45 4.07167 25.375 6.34667 25.375 11.655V18.655C25.375 23.5317 24.0567 26.5417 17.5 26.5417Z" fill="#2E2E2E"/>
</svg>
