<svg width="46" height="46" viewBox="0 0 46 46" fill="none" xmlns="http://www.w3.org/2000/svg">
<g id="Group">
<path id="Vector" d="M35.2188 0H10.7812C4.82693 0 0 4.82693 0 10.7812V35.2188C0 41.1731 4.82693 46 10.7812 46H35.2188C41.1731 46 46 41.1731 46 35.2188V10.7812C46 4.82693 41.1731 0 35.2188 0Z" fill="#9F9F9F"/>
<path id="Vector_2" d="M35.2188 0H10.7812C4.82693 0 0 4.82693 0 10.7812V35.2188C0 41.1731 4.82693 46 10.7812 46H35.2188C41.1731 46 46 41.1731 46 35.2188V10.7812C46 4.82693 41.1731 0 35.2188 0Z" fill="#9F9F9F"/>
<path id="Vector_3" d="M23.0009 13C20.2851 13 19.9442 13.0119 18.8776 13.0604C17.813 13.1092 17.0863 13.2777 16.4505 13.525C15.7927 13.7804 15.2348 14.1221 14.679 14.6781C14.1227 15.234 13.781 15.7919 13.5248 16.4494C13.2768 17.0854 13.1081 17.8124 13.0602 18.8764C13.0125 19.9431 13 20.2841 13 23C13 25.7159 13.012 26.0557 13.0604 27.1223C13.1094 28.1868 13.2779 28.9135 13.525 29.5493C13.7806 30.2071 14.1223 30.765 14.6783 31.3208C15.234 31.8771 15.7919 32.2196 16.4492 32.475C17.0855 32.7223 17.8123 32.8908 18.8767 32.9396C19.9434 32.9881 20.284 33 22.9997 33C25.7158 33 26.0556 32.9881 27.1222 32.9396C28.1868 32.8908 28.9143 32.7223 29.5506 32.475C30.2081 32.2196 30.7652 31.8771 31.3208 31.3208C31.8771 30.765 32.2187 30.2071 32.475 29.5496C32.7208 28.9135 32.8896 28.1866 32.9396 27.1225C32.9875 26.0559 33 25.7159 33 23C33 20.2841 32.9875 19.9433 32.9396 18.8766C32.8896 17.8121 32.7208 17.0855 32.475 16.4497C32.2187 15.7919 31.8771 15.234 31.3208 14.6781C30.7646 14.1219 30.2083 13.7802 29.55 13.5251C28.9125 13.2777 28.1854 13.1091 27.1208 13.0604C26.0541 13.0119 25.7145 13 22.9978 13H23.0009ZM22.1038 14.8021C22.3701 14.8017 22.6672 14.8021 23.0009 14.8021C25.671 14.8021 25.9874 14.8117 27.0418 14.8596C28.0168 14.9042 28.546 15.0671 28.8985 15.204C29.3652 15.3852 29.6979 15.6019 30.0477 15.952C30.3977 16.302 30.6143 16.6353 30.796 17.102C30.9329 17.454 31.096 17.9832 31.1404 18.9581C31.1883 20.0123 31.1987 20.3289 31.1987 22.9977C31.1987 25.6665 31.1883 25.9832 31.1404 27.0373C31.0958 28.0122 30.9329 28.5414 30.796 28.8935C30.6148 29.3602 30.3977 29.6925 30.0477 30.0423C29.6977 30.3923 29.3654 30.6089 28.8985 30.7902C28.5464 30.9277 28.0168 31.0902 27.0418 31.1348C25.9876 31.1827 25.671 31.1931 23.0009 31.1931C20.3307 31.1931 20.0142 31.1827 18.9601 31.1348C17.9851 31.0898 17.4559 30.9269 17.1031 30.79C16.6365 30.6087 16.3031 30.3921 15.9531 30.0421C15.6031 29.6921 15.3865 29.3596 15.2048 28.8927C15.0679 28.5406 14.9048 28.0114 14.8604 27.0365C14.8125 25.9823 14.8029 25.6657 14.8029 22.9952C14.8029 20.3248 14.8125 20.0098 14.8604 18.9556C14.905 17.9807 15.0679 17.4515 15.2048 17.099C15.3861 16.6323 15.6031 16.299 15.9532 15.949C16.3032 15.599 16.6365 15.3823 17.1032 15.2007C17.4557 15.0632 17.9851 14.9007 18.9601 14.8559C19.8826 14.8142 20.2401 14.8017 22.1038 14.7996V14.8021ZM28.3389 16.4625C27.6764 16.4625 27.1389 16.9995 27.1389 17.6621C27.1389 18.3245 27.6764 18.862 28.3389 18.862C29.0014 18.862 29.5389 18.3245 29.5389 17.6621C29.5389 16.9996 29.0014 16.4621 28.3389 16.4621V16.4625ZM23.0009 17.8646C20.1649 17.8646 17.8655 20.1639 17.8655 23C17.8655 25.8361 20.1649 28.1343 23.0009 28.1343C25.837 28.1343 28.1356 25.8361 28.1356 23C28.1356 20.164 25.8368 17.8646 23.0007 17.8646H23.0009ZM23.0009 19.6666C24.8418 19.6666 26.3343 21.1589 26.3343 23C26.3343 24.8409 24.8418 26.3334 23.0009 26.3334C21.1599 26.3334 19.6676 24.8409 19.6676 23C19.6676 21.1589 21.1599 19.6666 23.0009 19.6666Z" fill="white"/>
</g>
</svg>
