<svg width="46" height="46" viewBox="0 0 46 46" fill="none" xmlns="http://www.w3.org/2000/svg">
<g id="&#208;&#155;&#208;&#184;&#208;&#189;&#208;&#186;&#208;&#181;&#208;&#180;&#208;&#184;&#208;&#189; &#208;&#189;&#208;&#181;&#208;&#176;&#208;&#186;&#209;&#130;.">
<circle id="Ellipse" cx="23" cy="23" r="23" fill="#9F9F9F"/>
<path id="Vector" d="M32.2 23.8559V30.1989H28.487V24.2426C28.487 22.7729 27.9455 21.7673 26.6305 21.7673C25.6249 21.7673 25.006 22.4635 24.774 23.0823C24.6966 23.3144 24.6193 23.6238 24.6193 24.0106V30.1989H20.9063C20.9063 30.1989 20.9836 20.1429 20.9063 19.1373H24.6193V20.6843C25.0834 19.9108 26.0116 18.8278 27.9455 18.8278C30.3435 18.8278 32.2 20.4523 32.2 23.8559ZM17.0385 13.7998C15.8009 13.7998 14.95 14.6507 14.95 15.7337C14.95 16.8166 15.7235 17.6675 16.9612 17.6675C18.2762 17.6675 19.0498 16.8166 19.0498 15.7337C19.1271 14.5733 18.3536 13.7998 17.0385 13.7998ZM15.182 30.1989H18.895V19.1373H15.182V30.1989Z" fill="white"/>
</g>
</svg>
