<svg width="200" height="67" viewBox="0 0 200 67" fill="none" xmlns="http://www.w3.org/2000/svg">
<path d="M14.784 51.32C13.3093 51.32 11.7413 51.208 10.08 50.984C8.41867 50.76 6.81333 50.312 5.264 49.64C3.71467 48.968 2.38 47.96 1.26 46.616L7.476 39.952C7.96133 40.4747 8.52133 40.9507 9.156 41.38C9.80933 41.828 10.556 42.1827 11.396 42.444C12.236 42.724 13.188 42.864 14.252 42.864C15.204 42.864 16.0627 42.7427 16.828 42.5C17.5933 42.2573 18.2 41.856 18.648 41.296C19.096 40.736 19.32 39.9707 19.32 39V38.552H30.184V39.616C30.184 42.192 29.5027 44.348 28.14 46.084C26.7773 47.82 24.9293 49.1267 22.596 50.004C20.2813 50.8813 17.6773 51.32 14.784 51.32ZM19.32 39V35.78C19.1333 36.116 18.7133 36.6013 18.06 37.236C17.4253 37.852 16.5853 38.412 15.54 38.916C14.5133 39.42 13.3093 39.672 11.928 39.672C9.632 39.672 7.65333 39.1027 5.992 37.964C4.34933 36.8067 3.08933 35.304 2.212 33.456C1.33467 31.608 0.896 29.6293 0.896 27.52C0.896 25.4107 1.33467 23.432 2.212 21.584C3.08933 19.736 4.34933 18.2333 5.992 17.076C7.65333 15.9187 9.632 15.34 11.928 15.34C13.2347 15.34 14.3733 15.5267 15.344 15.9C16.3147 16.2547 17.1173 16.6933 17.752 17.216C18.4053 17.72 18.8907 18.2147 19.208 18.7V16.012H30.184V39H19.32ZM11.704 27.52C11.704 28.1547 11.8627 28.752 12.18 29.312C12.4973 29.872 12.936 30.32 13.496 30.656C14.056 30.992 14.7093 31.16 15.456 31.16C16.2027 31.16 16.856 30.992 17.416 30.656C17.976 30.32 18.4147 29.872 18.732 29.312C19.0493 28.752 19.208 28.1547 19.208 27.52C19.208 26.8853 19.0493 26.288 18.732 25.728C18.4147 25.168 17.976 24.72 17.416 24.384C16.856 24.0293 16.2027 23.852 15.456 23.852C14.7093 23.852 14.056 24.0293 13.496 24.384C12.936 24.72 12.4973 25.168 12.18 25.728C11.8627 26.288 11.704 26.8853 11.704 27.52ZM49.9472 39V35.78C49.7605 36.116 49.3405 36.6013 48.6872 37.236C48.0525 37.852 47.2125 38.412 46.1672 38.916C45.1405 39.42 43.9365 39.672 42.5552 39.672C40.2592 39.672 38.2805 39.1027 36.6192 37.964C34.9765 36.8067 33.7165 35.304 32.8392 33.456C31.9619 31.608 31.5232 29.6293 31.5232 27.52C31.5232 25.4107 31.9619 23.432 32.8392 21.584C33.7165 19.736 34.9765 18.2333 36.6192 17.076C38.2805 15.9187 40.2592 15.34 42.5552 15.34C43.8619 15.34 45.0005 15.5267 45.9712 15.9C46.9419 16.2547 47.7445 16.6933 48.3792 17.216C49.0325 17.72 49.5179 18.2147 49.8352 18.7V16.012H60.8112V39H49.9472ZM42.3312 27.52C42.3312 28.1547 42.4899 28.752 42.8072 29.312C43.1245 29.872 43.5632 30.32 44.1232 30.656C44.6832 30.992 45.3365 31.16 46.0832 31.16C46.8299 31.16 47.4832 30.992 48.0432 30.656C48.6032 30.32 49.0419 29.872 49.3592 29.312C49.6765 28.752 49.8352 28.1547 49.8352 27.52C49.8352 26.8853 49.6765 26.288 49.3592 25.728C49.0419 25.168 48.6032 24.72 48.0432 24.384C47.4832 24.0293 46.8299 23.852 46.0832 23.852C45.3365 23.852 44.6832 24.0293 44.1232 24.384C43.5632 24.72 43.1245 25.168 42.8072 25.728C42.4899 26.288 42.3312 26.8853 42.3312 27.52ZM97.5984 15.34C99.353 15.34 100.93 15.6947 102.33 16.404C103.749 17.0947 104.869 18.1867 105.69 19.68C106.53 21.1547 106.95 23.068 106.95 25.42V39H96.1144V26.904C96.1144 25.9147 95.9464 25.0187 95.6104 24.216C95.2744 23.4133 94.5184 23.012 93.3424 23.012C92.5584 23.012 91.9237 23.208 91.4384 23.6C90.953 23.9733 90.5984 24.4587 90.3744 25.056C90.169 25.6347 90.0664 26.2507 90.0664 26.904V39H80.0144V26.904C80.0144 25.9147 79.8557 25.0187 79.5384 24.216C79.2397 23.4133 78.493 23.012 77.2984 23.012C76.5144 23.012 75.8704 23.208 75.3664 23.6C74.881 23.9733 74.5264 24.4587 74.3024 25.056C74.0784 25.6347 73.9664 26.2507 73.9664 26.904V39H63.0464V16.012H73.9664V19.12C74.209 18.5413 74.7317 17.9627 75.5344 17.384C76.3557 16.8053 77.3357 16.32 78.4744 15.928C79.6317 15.536 80.817 15.34 82.0304 15.34C83.3744 15.34 84.4944 15.4893 85.3904 15.788C86.305 16.068 87.0704 16.4973 87.6864 17.076C88.3024 17.636 88.8437 18.3267 89.3104 19.148C89.553 18.5693 90.0757 17.9907 90.8784 17.412C91.681 16.8147 92.6704 16.32 93.8464 15.928C95.0224 15.536 96.273 15.34 97.5984 15.34ZM142.827 15.34C144.582 15.34 146.159 15.6947 147.559 16.404C148.978 17.0947 150.098 18.1867 150.919 19.68C151.759 21.1547 152.179 23.068 152.179 25.42V39H141.343V26.904C141.343 25.9147 141.175 25.0187 140.839 24.216C140.503 23.4133 139.747 23.012 138.571 23.012C137.787 23.012 137.152 23.208 136.667 23.6C136.182 23.9733 135.827 24.4587 135.603 25.056C135.398 25.6347 135.295 26.2507 135.295 26.904V39H125.243V26.904C125.243 25.9147 125.084 25.0187 124.767 24.216C124.468 23.4133 123.722 23.012 122.527 23.012C121.743 23.012 121.099 23.208 120.595 23.6C120.11 23.9733 119.755 24.4587 119.531 25.056C119.307 25.6347 119.195 26.2507 119.195 26.904V39H108.275V16.012H119.195V19.12C119.438 18.5413 119.96 17.9627 120.763 17.384C121.584 16.8053 122.564 16.32 123.703 15.928C124.86 15.536 126.046 15.34 127.259 15.34C128.603 15.34 129.723 15.4893 130.619 15.788C131.534 16.068 132.299 16.4973 132.915 17.076C133.531 17.636 134.072 18.3267 134.539 19.148C134.782 18.5693 135.304 17.9907 136.107 17.412C136.91 16.8147 137.899 16.32 139.075 15.928C140.251 15.536 141.502 15.34 142.827 15.34ZM171.032 39V35.78C170.845 36.116 170.425 36.6013 169.772 37.236C169.137 37.852 168.297 38.412 167.252 38.916C166.225 39.42 165.021 39.672 163.64 39.672C161.344 39.672 159.365 39.1027 157.704 37.964C156.061 36.8067 154.801 35.304 153.924 33.456C153.047 31.608 152.608 29.6293 152.608 27.52C152.608 25.4107 153.047 23.432 153.924 21.584C154.801 19.736 156.061 18.2333 157.704 17.076C159.365 15.9187 161.344 15.34 163.64 15.34C164.947 15.34 166.085 15.5267 167.056 15.9C168.027 16.2547 168.829 16.6933 169.464 17.216C170.117 17.72 170.603 18.2147 170.92 18.7V16.012H181.896V39H171.032ZM163.416 27.52C163.416 28.1547 163.575 28.752 163.892 29.312C164.209 29.872 164.648 30.32 165.208 30.656C165.768 30.992 166.421 31.16 167.168 31.16C167.915 31.16 168.568 30.992 169.128 30.656C169.688 30.32 170.127 29.872 170.444 29.312C170.761 28.752 170.92 28.1547 170.92 27.52C170.92 26.8853 170.761 26.288 170.444 25.728C170.127 25.168 169.688 24.72 169.128 24.384C168.568 24.0293 167.915 23.852 167.168 23.852C166.421 23.852 165.768 24.0293 165.208 24.384C164.648 24.72 164.209 25.168 163.892 25.728C163.575 26.288 163.416 26.8853 163.416 27.52ZM190.347 39.672C188.704 39.672 187.295 39.084 186.119 37.908C184.943 36.732 184.355 35.3227 184.355 33.68C184.355 32.0187 184.943 30.6 186.119 29.424C187.295 28.248 188.704 27.66 190.347 27.66C192.008 27.66 193.427 28.248 194.603 29.424C195.779 30.6 196.367 32.0187 196.367 33.68C196.367 35.3227 195.779 36.732 194.603 37.908C193.427 39.084 192.008 39.672 190.347 39.672Z" fill="#834EEB"/>
<path d="M53.596 54.36C54.2787 54.36 54.8813 54.4933 55.404 54.76C55.9373 55.0267 56.3533 55.4373 56.652 55.992C56.9507 56.536 57.1 57.24 57.1 58.104V63H55.1V58.36C55.1 57.6027 54.9347 57.0373 54.604 56.664C54.2733 56.2907 53.7987 56.104 53.18 56.104C52.7427 56.104 52.3533 56.2 52.012 56.392C51.6813 56.584 51.42 56.8667 51.228 57.24C51.0467 57.6133 50.956 58.088 50.956 58.664V63H48.956V58.36C48.956 57.6027 48.7907 57.0373 48.46 56.664C48.1293 56.2907 47.6547 56.104 47.036 56.104C46.5987 56.104 46.2093 56.2 45.868 56.392C45.5373 56.584 45.276 56.8667 45.084 57.24C44.9027 57.6133 44.812 58.088 44.812 58.664V63H42.812V54.456H44.716V56.728L44.38 56.056C44.668 55.5013 45.084 55.08 45.628 54.792C46.1827 54.504 46.812 54.36 47.516 54.36C48.316 54.36 49.0093 54.5573 49.596 54.952C50.1933 55.3467 50.588 55.944 50.78 56.744L49.996 56.472C50.2733 55.832 50.732 55.32 51.372 54.936C52.012 54.552 52.7533 54.36 53.596 54.36ZM63.6874 63.112C62.738 63.112 61.906 62.9253 61.1914 62.552C60.4874 62.168 59.938 61.6453 59.5434 60.984C59.1594 60.3227 58.9674 59.5707 58.9674 58.728C58.9674 57.8747 59.154 57.1227 59.5274 56.472C59.9114 55.8107 60.434 55.2933 61.0954 54.92C61.7674 54.5467 62.53 54.36 63.3834 54.36C64.2154 54.36 64.9567 54.5413 65.6074 54.904C66.258 55.2667 66.77 55.7787 67.1434 56.44C67.5167 57.1013 67.7034 57.88 67.7034 58.776C67.7034 58.8613 67.698 58.9573 67.6874 59.064C67.6874 59.1707 67.682 59.272 67.6714 59.368H60.5514V58.04H66.6154L65.8314 58.456C65.842 57.9653 65.7407 57.5333 65.5274 57.16C65.314 56.7867 65.0207 56.4933 64.6474 56.28C64.2847 56.0667 63.8634 55.96 63.3834 55.96C62.8927 55.96 62.4607 56.0667 62.0874 56.28C61.7247 56.4933 61.4367 56.792 61.2234 57.176C61.0207 57.5493 60.9194 57.992 60.9194 58.504V58.824C60.9194 59.336 61.0367 59.7893 61.2714 60.184C61.506 60.5787 61.8367 60.8827 62.2634 61.096C62.69 61.3093 63.1807 61.416 63.7354 61.416C64.2154 61.416 64.6474 61.3413 65.0314 61.192C65.4154 61.0427 65.7567 60.808 66.0554 60.488L67.1274 61.72C66.7434 62.168 66.258 62.5147 65.6714 62.76C65.0954 62.9947 64.434 63.112 63.6874 63.112ZM74.4725 54.36C75.1552 54.36 75.7632 54.4933 76.2965 54.76C76.8405 55.0267 77.2672 55.4373 77.5765 55.992C77.8858 56.536 78.0405 57.24 78.0405 58.104V63H76.0405V58.36C76.0405 57.6027 75.8592 57.0373 75.4965 56.664C75.1445 56.2907 74.6485 56.104 74.0085 56.104C73.5392 56.104 73.1232 56.2 72.7605 56.392C72.3978 56.584 72.1152 56.872 71.9125 57.256C71.7205 57.6293 71.6245 58.104 71.6245 58.68V63H69.6245V54.456H71.5285V56.76L71.1925 56.056C71.4912 55.512 71.9232 55.096 72.4885 54.808C73.0645 54.5093 73.7258 54.36 74.4725 54.36ZM83.7936 63.112C82.855 63.112 82.1296 62.872 81.6176 62.392C81.1056 61.9013 80.8496 61.1813 80.8496 60.232V52.568H82.8496V60.184C82.8496 60.5893 82.951 60.904 83.1536 61.128C83.367 61.352 83.6603 61.464 84.0336 61.464C84.4816 61.464 84.855 61.3467 85.1536 61.112L85.7136 62.536C85.479 62.728 85.191 62.872 84.8496 62.968C84.5083 63.064 84.1563 63.112 83.7936 63.112ZM79.4416 56.12V54.52H85.1376V56.12H79.4416ZM92.6229 63V61.272L92.5109 60.904V57.88C92.5109 57.2933 92.3349 56.84 91.9829 56.52C91.6309 56.1893 91.0975 56.024 90.3829 56.024C89.9029 56.024 89.4282 56.0987 88.9589 56.248C88.5002 56.3973 88.1109 56.6053 87.7909 56.872L87.0069 55.416C87.4655 55.064 88.0095 54.8027 88.6389 54.632C89.2789 54.4507 89.9402 54.36 90.6229 54.36C91.8602 54.36 92.8149 54.6587 93.4869 55.256C94.1695 55.8427 94.5109 56.7547 94.5109 57.992V63H92.6229ZM89.9349 63.112C89.2949 63.112 88.7349 63.0053 88.2549 62.792C87.7749 62.568 87.4015 62.264 87.1349 61.88C86.8789 61.4853 86.7509 61.0427 86.7509 60.552C86.7509 60.072 86.8629 59.64 87.0869 59.256C87.3215 58.872 87.7002 58.568 88.2229 58.344C88.7455 58.12 89.4389 58.008 90.3029 58.008H92.7829V59.336H90.4469C89.7642 59.336 89.3055 59.448 89.0709 59.672C88.8362 59.8853 88.7189 60.152 88.7189 60.472C88.7189 60.8347 88.8629 61.1227 89.1509 61.336C89.4389 61.5493 89.8389 61.656 90.3509 61.656C90.8415 61.656 91.2789 61.544 91.6629 61.32C92.0575 61.096 92.3402 60.7653 92.5109 60.328L92.8469 61.528C92.6549 62.0293 92.3082 62.4187 91.8069 62.696C91.3162 62.9733 90.6922 63.112 89.9349 63.112ZM97.0776 63V51.128H99.0776V63H97.0776ZM110.973 54.36C111.655 54.36 112.263 54.4933 112.797 54.76C113.341 55.0267 113.767 55.4373 114.077 55.992C114.386 56.536 114.541 57.24 114.541 58.104V63H112.541V58.36C112.541 57.6027 112.359 57.0373 111.997 56.664C111.645 56.2907 111.149 56.104 110.509 56.104C110.039 56.104 109.623 56.2 109.261 56.392C108.898 56.584 108.615 56.872 108.413 57.256C108.221 57.6293 108.125 58.104 108.125 58.68V63H106.125V51.128H108.125V56.76L107.693 56.056C107.991 55.512 108.423 55.096 108.989 54.808C109.565 54.5093 110.226 54.36 110.973 54.36ZM121.109 63.112C120.16 63.112 119.328 62.9253 118.613 62.552C117.909 62.168 117.36 61.6453 116.965 60.984C116.581 60.3227 116.389 59.5707 116.389 58.728C116.389 57.8747 116.576 57.1227 116.949 56.472C117.333 55.8107 117.856 55.2933 118.517 54.92C119.189 54.5467 119.952 54.36 120.805 54.36C121.637 54.36 122.379 54.5413 123.029 54.904C123.68 55.2667 124.192 55.7787 124.565 56.44C124.939 57.1013 125.125 57.88 125.125 58.776C125.125 58.8613 125.12 58.9573 125.109 59.064C125.109 59.1707 125.104 59.272 125.093 59.368H117.973V58.04H124.037L123.253 58.456C123.264 57.9653 123.163 57.5333 122.949 57.16C122.736 56.7867 122.443 56.4933 122.069 56.28C121.707 56.0667 121.285 55.96 120.805 55.96C120.315 55.96 119.883 56.0667 119.509 56.28C119.147 56.4933 118.859 56.792 118.645 57.176C118.443 57.5493 118.341 57.992 118.341 58.504V58.824C118.341 59.336 118.459 59.7893 118.693 60.184C118.928 60.5787 119.259 60.8827 119.685 61.096C120.112 61.3093 120.603 61.416 121.157 61.416C121.637 61.416 122.069 61.3413 122.453 61.192C122.837 61.0427 123.179 60.808 123.477 60.488L124.549 61.72C124.165 62.168 123.68 62.5147 123.093 62.76C122.517 62.9947 121.856 63.112 121.109 63.112ZM132.076 63V61.272L131.964 60.904V57.88C131.964 57.2933 131.788 56.84 131.436 56.52C131.084 56.1893 130.551 56.024 129.836 56.024C129.356 56.024 128.881 56.0987 128.412 56.248C127.953 56.3973 127.564 56.6053 127.244 56.872L126.46 55.416C126.919 55.064 127.463 54.8027 128.092 54.632C128.732 54.4507 129.393 54.36 130.076 54.36C131.313 54.36 132.268 54.6587 132.94 55.256C133.623 55.8427 133.964 56.7547 133.964 57.992V63H132.076ZM129.388 63.112C128.748 63.112 128.188 63.0053 127.708 62.792C127.228 62.568 126.855 62.264 126.588 61.88C126.332 61.4853 126.204 61.0427 126.204 60.552C126.204 60.072 126.316 59.64 126.54 59.256C126.775 58.872 127.153 58.568 127.676 58.344C128.199 58.12 128.892 58.008 129.756 58.008H132.236V59.336H129.9C129.217 59.336 128.759 59.448 128.524 59.672C128.289 59.8853 128.172 60.152 128.172 60.472C128.172 60.8347 128.316 61.1227 128.604 61.336C128.892 61.5493 129.292 61.656 129.804 61.656C130.295 61.656 130.732 61.544 131.116 61.32C131.511 61.096 131.793 60.7653 131.964 60.328L132.3 61.528C132.108 62.0293 131.761 62.4187 131.26 62.696C130.769 62.9733 130.145 63.112 129.388 63.112ZM136.531 63V51.128H138.531V63H136.531ZM144.794 63.112C143.855 63.112 143.13 62.872 142.618 62.392C142.106 61.9013 141.85 61.1813 141.85 60.232V52.568H143.85V60.184C143.85 60.5893 143.951 60.904 144.154 61.128C144.367 61.352 144.66 61.464 145.034 61.464C145.482 61.464 145.855 61.3467 146.154 61.112L146.714 62.536C146.479 62.728 146.191 62.872 145.85 62.968C145.508 63.064 145.156 63.112 144.794 63.112ZM140.442 56.12V54.52H146.138V56.12H140.442ZM153.207 54.36C153.89 54.36 154.498 54.4933 155.031 54.76C155.575 55.0267 156.002 55.4373 156.311 55.992C156.62 56.536 156.775 57.24 156.775 58.104V63H154.775V58.36C154.775 57.6027 154.594 57.0373 154.231 56.664C153.879 56.2907 153.383 56.104 152.743 56.104C152.274 56.104 151.858 56.2 151.495 56.392C151.132 56.584 150.85 56.872 150.647 57.256C150.455 57.6293 150.359 58.104 150.359 58.68V63H148.359V51.128H150.359V56.76L149.927 56.056C150.226 55.512 150.658 55.096 151.223 54.808C151.799 54.5093 152.46 54.36 153.207 54.36Z" fill="#7ED957"/>
</svg>
