<svg width="28" height="28" viewBox="0 0 28 28" fill="none" xmlns="http://www.w3.org/2000/svg">
<path d="M17.7799 25.9816H17.6283C12.4483 25.9816 9.9516 23.94 9.51994 19.3666C9.47327 18.8883 9.82327 18.4566 10.3133 18.41C10.7799 18.3633 11.2233 18.725 11.2699 19.2033C11.6083 22.8666 13.3349 24.2316 17.6399 24.2316H17.7916C22.5399 24.2316 24.2199 22.5516 24.2199 17.8033V10.1966C24.2199 5.44831 22.5399 3.76831 17.7916 3.76831H17.6399C13.3116 3.76831 11.5849 5.15664 11.2699 8.88998C11.2116 9.36831 10.8033 9.72998 10.3133 9.68331C9.82327 9.64831 9.47327 9.21664 9.50827 8.73831C9.90494 4.09498 12.4133 2.01831 17.6283 2.01831H17.7799C23.5083 2.01831 25.9583 4.46831 25.9583 10.1966V17.8033C25.9583 23.5316 23.5083 25.9816 17.7799 25.9816Z" fill="#2E2E2E"/>
<path d="M17.4993 14.875H4.22266C3.74432 14.875 3.34766 14.4783 3.34766 14C3.34766 13.5217 3.74432 13.125 4.22266 13.125H17.4993C17.9777 13.125 18.3743 13.5217 18.3743 14C18.3743 14.4783 17.9777 14.875 17.4993 14.875Z" fill="#2E2E2E"/>
<path d="M6.82534 18.7832C6.60367 18.7832 6.38201 18.7016 6.20701 18.5266L2.29867 14.6182C1.96034 14.2799 1.96034 13.7199 2.29867 13.3816L6.20701 9.47323C6.54534 9.1349 7.10534 9.1349 7.44367 9.47323C7.782 9.81157 7.782 10.3716 7.44367 10.7099L4.15367 13.9999L7.44367 17.2899C7.782 17.6282 7.782 18.1882 7.44367 18.5266C7.28034 18.7016 7.047 18.7832 6.82534 18.7832Z" fill="#2E2E2E"/>
</svg>
