<svg width="31" height="31" viewBox="0 0 31 31" fill="none" xmlns="http://www.w3.org/2000/svg">
<path d="M15.3334 27.5625C14.9459 27.5625 14.5709 27.5125 14.2584 27.4C9.48337 25.7625 1.89587 19.95 1.89587 11.3625C1.89587 6.9875 5.43337 3.4375 9.78337 3.4375C11.8959 3.4375 13.8709 4.2625 15.3334 5.7375C16.7959 4.2625 18.7709 3.4375 20.8834 3.4375C25.2334 3.4375 28.7709 7 28.7709 11.3625C28.7709 19.9625 21.1834 25.7625 16.4084 27.4C16.0959 27.5125 15.7209 27.5625 15.3334 27.5625ZM9.78337 5.3125C6.47087 5.3125 3.77087 8.025 3.77087 11.3625C3.77087 19.9 11.9834 24.65 14.8709 25.6375C15.0959 25.7125 15.5834 25.7125 15.8084 25.6375C18.6834 24.65 26.9084 19.9125 26.9084 11.3625C26.9084 8.025 24.2084 5.3125 20.8959 5.3125C18.9959 5.3125 17.2334 6.2 16.0959 7.7375C15.7459 8.2125 14.9459 8.2125 14.5959 7.7375C13.4334 6.1875 11.6834 5.3125 9.78337 5.3125Z" fill="#7ED957"/>
</svg>
