<svg width="61" height="60" viewBox="0 0 61 60" fill="none" xmlns="http://www.w3.org/2000/svg">
<g id="Group">
<path id="Vector" d="M45.5 42.5V55H40.5V42.5C40.5 31.3725 47.11 21.7875 56.6175 17.46L58.6875 22.01C54.7543 23.7989 51.4192 26.6824 49.0807 30.3158C46.7422 33.9492 45.4992 38.1791 45.5 42.5ZM20.5 42.5V55H15.5V42.5C15.5004 38.1795 14.2571 33.9502 11.9186 30.3173C9.58012 26.6843 6.24532 23.8013 2.3125 22.0125L4.3825 17.46C9.18922 19.6462 13.265 23.1699 16.1231 27.6101C18.9811 32.0504 20.5006 37.2195 20.5 42.5ZM30.5 30C27.1848 30 24.0054 28.683 21.6612 26.3388C19.317 23.9946 18 20.8152 18 17.5C18 14.1848 19.317 11.0054 21.6612 8.66117C24.0054 6.31696 27.1848 5 30.5 5C33.8152 5 36.9946 6.31696 39.3388 8.66117C41.683 11.0054 43 14.1848 43 17.5C43 20.8152 41.683 23.9946 39.3388 26.3388C36.9946 28.683 33.8152 30 30.5 30ZM30.5 25C31.4849 25 32.4602 24.806 33.3701 24.4291C34.2801 24.0522 35.1069 23.4997 35.8033 22.8033C36.4997 22.1069 37.0522 21.2801 37.4291 20.3701C37.806 19.4602 38 18.4849 38 17.5C38 16.5151 37.806 15.5398 37.4291 14.6299C37.0522 13.7199 36.4997 12.8931 35.8033 12.1967C35.1069 11.5003 34.2801 10.9478 33.3701 10.5709C32.4602 10.194 31.4849 10 30.5 10C28.5109 10 26.6032 10.7902 25.1967 12.1967C23.7902 13.6032 23 15.5109 23 17.5C23 19.4891 23.7902 21.3968 25.1967 22.8033C26.6032 24.2098 28.5109 25 30.5 25Z" fill="#9F67FD"/>
</g>
</svg>
