<svg width="28" height="28" viewBox="0 0 28 28" fill="none" xmlns="http://www.w3.org/2000/svg">
<path d="M14.1405 15.785C14.1172 15.785 14.0822 15.785 14.0589 15.785C14.0239 15.785 13.9772 15.785 13.9422 15.785C11.2939 15.7033 9.31055 13.6383 9.31055 11.095C9.31055 8.50498 11.4222 6.39331 14.0122 6.39331C16.6022 6.39331 18.7139 8.50498 18.7139 11.095C18.7022 13.65 16.7072 15.7033 14.1755 15.785C14.1522 15.785 14.1522 15.785 14.1405 15.785ZM14.0005 8.13164C12.3672 8.13164 11.0489 9.46164 11.0489 11.0833C11.0489 12.6816 12.2972 13.9766 13.8839 14.035C13.9189 14.0233 14.0355 14.0233 14.1522 14.035C15.7155 13.9533 16.9405 12.67 16.9522 11.0833C16.9522 9.46164 15.6339 8.13164 14.0005 8.13164Z" fill="#2E2E2E"/>
<path d="M13.9996 26.5418C10.8613 26.5418 7.86298 25.3751 5.54131 23.2518C5.33131 23.0651 5.23798 22.7851 5.26131 22.5168C5.41298 21.1285 6.27631 19.8335 7.71131 18.8768C11.188 16.5668 16.823 16.5668 20.288 18.8768C21.723 19.8451 22.5863 21.1285 22.738 22.5168C22.773 22.7968 22.668 23.0651 22.458 23.2518C20.1363 25.3751 17.138 26.5418 13.9996 26.5418ZM7.09298 22.2835C9.02965 23.9051 11.468 24.7918 13.9996 24.7918C16.5313 24.7918 18.9696 23.9051 20.9063 22.2835C20.6963 21.5718 20.1363 20.8835 19.308 20.3235C16.438 18.4101 11.573 18.4101 8.67965 20.3235C7.85131 20.8835 7.30298 21.5718 7.09298 22.2835Z" fill="#2E2E2E"/>
<path d="M14.0007 26.5416C7.08232 26.5416 1.45898 20.9183 1.45898 13.9999C1.45898 7.08159 7.08232 1.45825 14.0007 1.45825C20.919 1.45825 26.5423 7.08159 26.5423 13.9999C26.5423 20.9183 20.919 26.5416 14.0007 26.5416ZM14.0007 3.20825C8.05065 3.20825 3.20898 8.04992 3.20898 13.9999C3.20898 19.9499 8.05065 24.7916 14.0007 24.7916C19.9507 24.7916 24.7923 19.9499 24.7923 13.9999C24.7923 8.04992 19.9507 3.20825 14.0007 3.20825Z" fill="#2E2E2E"/>
</svg>
