<svg width="28" height="28" viewBox="0 0 28 28" fill="none" xmlns="http://www.w3.org/2000/svg">
<path d="M17.5007 26.5416H10.5007C4.16565 26.5416 1.45898 23.8349 1.45898 17.4999V10.4999C1.45898 4.16492 4.16565 1.45825 10.5007 1.45825H12.834C13.3123 1.45825 13.709 1.85492 13.709 2.33325C13.709 2.81159 13.3123 3.20825 12.834 3.20825H10.5007C5.12232 3.20825 3.20898 5.12158 3.20898 10.4999V17.4999C3.20898 22.8783 5.12232 24.7916 10.5007 24.7916H17.5007C22.879 24.7916 24.7923 22.8783 24.7923 17.4999V15.1666C24.7923 14.6883 25.189 14.2916 25.6673 14.2916C26.1457 14.2916 26.5423 14.6883 26.5423 15.1666V17.4999C26.5423 23.8349 23.8356 26.5416 17.5007 26.5416Z" fill="#2E2E2E"/>
<path d="M9.91656 20.6384C9.20489 20.6384 8.55156 20.3817 8.07322 19.9151C7.50156 19.3434 7.25656 18.5151 7.38489 17.6401L7.88656 14.1284C7.97989 13.4517 8.42322 12.5767 8.90156 12.0984L18.0949 2.90507C20.4166 0.583402 22.7732 0.583402 25.0949 2.90507C26.3666 4.17673 26.9382 5.47174 26.8216 6.76674C26.7166 7.81674 26.1566 8.8434 25.0949 9.8934L15.9016 19.0867C15.4232 19.5651 14.5482 20.0084 13.8716 20.1017L10.3599 20.6034C10.2082 20.6384 10.0566 20.6384 9.91656 20.6384ZM19.3316 4.14173L10.1382 13.3351C9.91656 13.5567 9.65989 14.0701 9.61322 14.3734L9.11156 17.8851C9.06489 18.2234 9.13489 18.5034 9.30989 18.6784C9.48489 18.8534 9.76489 18.9234 10.1032 18.8767L13.6149 18.3751C13.9182 18.3284 14.4432 18.0717 14.6532 17.8501L23.8466 8.65673C24.6049 7.8984 25.0016 7.22174 25.0599 6.59173C25.1299 5.8334 24.7332 5.0284 23.8466 4.13007C21.9799 2.2634 20.6966 2.7884 19.3316 4.14173Z" fill="#2E2E2E"/>
<path d="M23.1588 11.4683C23.0771 11.4683 22.9955 11.4567 22.9255 11.4333C19.8571 10.57 17.4188 8.13166 16.5555 5.06332C16.4271 4.59666 16.6955 4.11832 17.1621 3.97832C17.6288 3.84999 18.1071 4.11832 18.2355 4.58499C18.9355 7.06999 20.9071 9.04166 23.3921 9.74166C23.8588 9.86999 24.1271 10.36 23.9988 10.8267C23.8938 11.2233 23.5438 11.4683 23.1588 11.4683Z" fill="#2E2E2E"/>
</svg>
