<svg width="31" height="31" viewBox="0 0 31 31" fill="none" xmlns="http://www.w3.org/2000/svg">
<path d="M14.7084 27.6875C7.64587 27.6875 1.89587 21.9375 1.89587 14.875C1.89587 7.8125 7.64587 2.0625 14.7084 2.0625C21.7709 2.0625 27.5209 7.8125 27.5209 14.875C27.5209 21.9375 21.7709 27.6875 14.7084 27.6875ZM14.7084 3.9375C8.67087 3.9375 3.77087 8.85 3.77087 14.875C3.77087 20.9 8.67087 25.8125 14.7084 25.8125C20.7459 25.8125 25.6459 20.9 25.6459 14.875C25.6459 8.85 20.7459 3.9375 14.7084 3.9375Z" fill="#7ED957"/>
<path d="M27.8334 28.9373C27.5959 28.9373 27.3584 28.8498 27.1709 28.6623L24.6709 26.1623C24.3084 25.7998 24.3084 25.1998 24.6709 24.8373C25.0334 24.4748 25.6334 24.4748 25.9959 24.8373L28.4959 27.3373C28.8584 27.6998 28.8584 28.2998 28.4959 28.6623C28.3084 28.8498 28.0709 28.9373 27.8334 28.9373Z" fill="#7ED957"/>
</svg>
