<svg width="46" height="46" viewBox="0 0 46 46" fill="none" xmlns="http://www.w3.org/2000/svg">
<g id="&#208;&#162;&#208;&#181;&#208;&#187;&#208;&#181;&#208;&#179;&#209;&#128;&#208;&#176;&#208;&#188; &#208;&#189;&#208;&#181;&#208;&#176;&#208;&#186;&#209;&#130;.">
<circle id="Ellipse" cx="23" cy="23" r="23" fill="#9F9F9F"/>
<path id="Vector" d="M10.7533 23.43L16.0411 25.4017L18.1024 32.0339C18.1921 32.482 18.7298 32.5716 19.0883 32.3027L22.0459 29.8829C22.3147 29.614 22.7629 29.614 23.1214 29.8829L28.4091 33.7367C28.7676 34.0056 29.3054 33.8263 29.395 33.3782L33.3384 14.5573C33.4281 14.1091 32.98 13.661 32.5318 13.8403L10.7533 22.2649C10.2155 22.4441 10.2155 23.2507 10.7533 23.43ZM17.8336 24.4159L28.2299 18.0526C28.4091 17.963 28.5884 18.2318 28.4091 18.3215L19.8949 26.298C19.626 26.5668 19.3572 26.9253 19.3572 27.3734L19.0883 29.5244C19.0883 29.7933 18.6402 29.8829 18.5505 29.5244L17.4751 25.581C17.2062 25.1328 17.3854 24.5951 17.8336 24.4159Z" fill="white"/>
</g>
</svg>
