<svg width="128" height="101" viewBox="0 0 128 101" fill="none" xmlns="http://www.w3.org/2000/svg">
<path fill-rule="evenodd" clip-rule="evenodd" d="M116.807 18.1373C127.395 31.7176 132.097 53.1513 123.507 68.0849C114.809 83.2051 92.7155 81.5865 76.5422 88.1355C66.3954 92.2442 57.348 97.7977 46.5005 99.2669C34.9638 100.83 22.6855 102.474 12.522 96.8068C2.14182 91.0192 -3.94843 79.9458 -8.10997 68.8178C-12.1797 57.9354 -10.531 46.5253 -10.6273 34.9058C-10.7636 18.4544 -18.0958 0.367964 -8.78977 -13.2087C0.964219 -27.4388 20.0191 -37.6992 36.9818 -34.5512C53.8841 -31.4145 57.443 -7.72226 71.7856 1.74456C85.4465 10.7614 106.745 5.23122 116.807 18.1373Z" fill="#7ED957" fill-opacity="0.6"/>
</svg>
