<svg width="46" height="46" viewBox="0 0 46 46" fill="none" xmlns="http://www.w3.org/2000/svg">
<g id="&#208;&#146;&#208;&#176;&#209;&#130;&#209;&#129;&#208;&#176;&#208;&#191; &#208;&#189;&#208;&#181;&#208;&#176;&#208;&#186;&#209;&#130;.">
<circle id="Ellipse" cx="23" cy="23" r="23" fill="#9F9F9F"/>
<path id="Vector" d="M32.1159 13.872C29.844 11.6079 26.8147 10.3501 23.6171 10.3501C16.9696 10.3501 11.5842 15.7168 11.5842 22.3412C11.5842 24.4376 12.1732 26.534 13.183 28.2949L11.5001 34.5001L17.8952 32.823C19.6623 33.7454 21.5976 34.2485 23.6171 34.2485C30.2647 34.2485 35.6501 28.8819 35.6501 22.2574C35.5659 19.1548 34.3879 16.136 32.1159 13.872ZM29.4232 26.6178C29.1708 27.2886 27.9927 27.9595 27.4037 28.0433C26.8988 28.1272 26.2257 28.1272 25.5525 27.9595C25.1318 27.7918 24.5427 27.6241 23.8696 27.2886C20.8403 26.0308 18.9049 23.0121 18.7366 22.7605C18.5684 22.5928 17.4745 21.1673 17.4745 19.6579C17.4745 18.1485 18.2318 17.4777 18.4842 17.1423C18.7366 16.8069 19.0732 16.8069 19.3257 16.8069C19.494 16.8069 19.7464 16.8069 19.9147 16.8069C20.083 16.8069 20.3354 16.723 20.5879 17.31C20.8403 17.897 21.4293 19.4063 21.5135 19.4902C21.5976 19.6579 21.5976 19.8256 21.5135 19.9933C21.4293 20.161 21.3452 20.3287 21.1769 20.4965C21.0086 20.6642 20.8403 20.9157 20.7562 20.9996C20.5879 21.1673 20.4196 21.335 20.5879 21.5866C20.7562 21.922 21.3452 22.8444 22.2708 23.6829C23.4488 24.6892 24.3745 25.0246 24.711 25.1923C25.0476 25.36 25.2159 25.2761 25.3842 25.1084C25.5525 24.9407 26.1415 24.2699 26.3098 23.9345C26.4781 23.5991 26.7305 23.6829 26.983 23.7668C27.2354 23.8506 28.7501 24.6053 29.0025 24.773C29.3391 24.9407 29.5074 25.0246 29.5915 25.1084C29.6757 25.36 29.6757 25.947 29.4232 26.6178Z" fill="white"/>
</g>
</svg>
