<svg width="61" height="60" viewBox="0 0 61 60" fill="none" xmlns="http://www.w3.org/2000/svg">
<path d="M27.525 42.375C27.05 42.375 26.575 42.2 26.2 41.825L22.45 38.075C21.725 37.35 21.725 36.15 22.45 35.425C23.175 34.7 24.375 34.7 25.1 35.425L27.525 37.85L36.2 29.175C36.925 28.45 38.125 28.45 38.85 29.175C39.575 29.9 39.575 31.1 38.85 31.825L28.85 41.825C28.5 42.2 28 42.375 27.525 42.375Z" fill="#9F67FD"/>
<path d="M35.5 16.875H25.5C23.1 16.875 18.625 16.875 18.625 10C18.625 3.125 23.1 3.125 25.5 3.125H35.5C37.9 3.125 42.375 3.125 42.375 10C42.375 12.4 42.375 16.875 35.5 16.875ZM25.5 6.875C23.025 6.875 22.375 6.875 22.375 10C22.375 13.125 23.025 13.125 25.5 13.125H35.5C38.625 13.125 38.625 12.475 38.625 10C38.625 6.875 37.975 6.875 35.5 6.875H25.5Z" fill="#9F67FD"/>
<path d="M38 56.875H23C8.95 56.875 6.125 50.4249 6.125 40V25C6.125 13.6 10.25 8.72495 20.4 8.19995C21.425 8.14995 22.325 8.92495 22.375 9.97495C22.425 11.025 21.625 11.875 20.6 11.925C13.5 12.325 9.875 14.45 9.875 25V40C9.875 49.25 11.7 53.125 23 53.125H38C49.3 53.125 51.125 49.25 51.125 40V25C51.125 14.45 47.5 12.325 40.4 11.925C39.375 11.875 38.575 10.975 38.625 9.94995C38.675 8.92495 39.55 8.12495 40.6 8.17495C50.75 8.72495 54.875 13.6 54.875 24.975V39.9749C54.875 50.4249 52.05 56.875 38 56.875Z" fill="#9F67FD"/>
</svg>
