<svg width="60" height="60" viewBox="0 0 60 60" fill="none" xmlns="http://www.w3.org/2000/svg">
<path d="M30.0001 56.8999C27.2751 56.8999 24.5751 56.0998 22.4501 54.5248L11.7001 46.4999C8.85012 44.3749 6.62512 39.9499 6.62512 36.3999V17.7999C6.62512 13.9499 9.45012 9.84985 13.0751 8.49985L25.5501 3.82485C28.0251 2.89985 31.9251 2.89985 34.4001 3.82485L46.9001 8.49985C50.5251 9.84985 53.3501 13.9499 53.3501 17.7999V36.3749C53.3501 39.9249 51.1251 44.3499 48.2751 46.4749L37.5251 54.4999C35.4251 56.0998 32.7251 56.8999 30.0001 56.8999ZM26.8751 7.34985L14.4001 12.0249C12.2501 12.8249 10.3751 15.5249 10.3751 17.8249V36.3999C10.3751 38.7749 12.0501 42.0998 13.9251 43.4999L24.6751 51.5249C27.5501 53.6749 32.4251 53.6749 35.3001 51.5249L46.0501 43.4999C47.9501 42.0749 49.6001 38.7499 49.6001 36.3999V17.7999C49.6001 15.5249 47.7251 12.8249 45.5751 11.9999L33.1001 7.32485C31.4501 6.72485 28.5501 6.72485 26.8751 7.34985Z" fill="#9F67FD"/>
<path d="M30 33.1251C26.2 33.1251 23.125 30.0501 23.125 26.2501C23.125 22.4501 26.2 19.3751 30 19.3751C33.8 19.3751 36.875 22.4501 36.875 26.2501C36.875 30.0501 33.8 33.1251 30 33.1251ZM30 23.1251C28.275 23.1251 26.875 24.5251 26.875 26.2501C26.875 27.9751 28.275 29.3751 30 29.3751C31.725 29.3751 33.125 27.9751 33.125 26.2501C33.125 24.5251 31.725 23.1251 30 23.1251Z" fill="#9F67FD"/>
<path d="M30 40.6249C28.975 40.6249 28.125 39.7749 28.125 38.7499V31.2499C28.125 30.2249 28.975 29.3749 30 29.3749C31.025 29.3749 31.875 30.2249 31.875 31.2499V38.7499C31.875 39.7749 31.025 40.6249 30 40.6249Z" fill="#9F67FD"/>
</svg>
