<svg width="61" height="60" viewBox="0 0 61 60" fill="none" xmlns="http://www.w3.org/2000/svg">
<path d="M38.8257 56.875C37.7757 56.875 36.7007 56.5 35.8757 55.75L30.8757 51.175C30.6757 51 30.2756 51 30.0506 51.175L25.0757 55.75C23.4257 57.275 20.8506 57.25 19.2006 55.75L14.2006 51.175C14.0006 51 13.6007 51 13.3757 51.175L10.9005 53.45C8.62554 55.525 6.82559 55.2 5.95059 54.8C5.07559 54.4 3.60059 53.3 3.60059 50.175V30.45C3.60059 15.375 15.6506 3.125 30.4756 3.125C45.3006 3.125 57.3506 15.375 57.3506 30.45V50.175C57.3506 53.3 55.8756 54.425 55.0006 54.8C54.1256 55.175 52.3256 55.525 50.0506 53.45L47.5506 51.175C47.3506 51 46.9506 51 46.7506 51.175L41.7506 55.75C40.9506 56.5 39.9007 56.875 38.8257 56.875ZM30.5006 47.275C31.5506 47.275 32.6256 47.65 33.4256 48.4L38.4256 52.975C38.6256 53.15 39.0256 53.15 39.2256 52.975L44.2256 48.4C45.8756 46.9 48.4507 46.9 50.1007 48.4L52.6007 50.675C53.0257 51.05 53.3006 51.225 53.4756 51.275C53.5506 51.1 53.6256 50.75 53.6256 50.15V30.425C53.6256 17.425 43.2506 6.84998 30.5006 6.84998C17.7506 6.84998 7.37561 17.425 7.37561 30.425V50.15C7.37561 50.75 7.4756 51.1 7.5256 51.275C7.7006 51.2 8.00054 51.05 8.40054 50.675L10.9005 48.4C12.5505 46.9 15.1256 46.9 16.7756 48.4L21.7756 52.975C21.9756 53.15 22.3757 53.15 22.5757 52.975L27.5757 48.4C28.3757 47.65 29.4506 47.275 30.5006 47.275Z" fill="#9F67FD"/>
<path d="M30.5007 40.1751C26.5757 40.1751 22.6506 38.9501 19.3756 36.5001C18.5506 35.8751 18.3757 34.7001 19.0007 33.8751C19.6257 33.0501 20.8007 32.8751 21.6257 33.5001C26.8507 37.4251 34.1506 37.4251 39.3756 33.5001C40.2006 32.8751 41.3756 33.0501 42.0006 33.8751C42.6256 34.7001 42.4507 35.8751 41.6257 36.5001C38.3507 38.9501 34.4257 40.1751 30.5007 40.1751Z" fill="#9F67FD"/>
<path d="M30.5 29.375C26.7 29.375 23.625 26.3 23.625 22.5C23.625 18.7 26.7 15.625 30.5 15.625C34.3 15.625 37.375 18.7 37.375 22.5C37.375 26.3 34.3 29.375 30.5 29.375ZM30.5 19.375C28.775 19.375 27.375 20.775 27.375 22.5C27.375 24.225 28.775 25.625 30.5 25.625C32.225 25.625 33.625 24.225 33.625 22.5C33.625 20.775 32.225 19.375 30.5 19.375Z" fill="#9F67FD"/>
</svg>
