<svg width="32" height="32" viewBox="0 0 32 32" fill="none" xmlns="http://www.w3.org/2000/svg">
<path d="M6.66663 29.16C5.67997 29.16 4.70663 28.7867 3.95997 28.04C3.23997 27.32 2.83997 26.36 2.83997 25.3333C2.83997 24.3067 3.23997 23.3467 3.95997 22.6267L21.2933 5.29334C22.7866 3.80001 25.2133 3.80001 26.7066 5.29334C27.4266 6.01334 27.8266 6.97334 27.8266 8.00001C27.8266 9.02667 27.4266 9.98667 26.7066 10.7067L9.3733 28.04C8.62663 28.7867 7.6533 29.16 6.66663 29.16ZM24 6.17334C23.5333 6.17334 23.0666 6.34667 22.7066 6.70667L5.3733 24.04C5.02663 24.3867 4.83997 24.84 4.83997 25.3333C4.83997 25.8267 5.02663 26.28 5.3733 26.6267C6.07997 27.3333 7.2533 27.3333 7.95997 26.6267L25.2933 9.29334C25.64 8.94667 25.8266 8.49334 25.8266 8.00001C25.8266 7.50667 25.64 7.05334 25.2933 6.70667C24.9333 6.34667 24.4666 6.17334 24 6.17334Z" fill="#9F67FD"/>
<path d="M24.0134 12.9867C23.7601 12.9867 23.5067 12.8933 23.3067 12.6933L19.3067 8.69332C18.9201 8.30666 18.9201 7.66666 19.3067 7.27999C19.6934 6.89332 20.3334 6.89332 20.7201 7.27999L24.7201 11.28C25.1067 11.6667 25.1067 12.3067 24.7201 12.6933C24.5201 12.8933 24.2667 12.9867 24.0134 12.9867Z" fill="#9F67FD"/>
<path d="M13.3333 7.33332C13.2666 7.33332 13.2133 7.31999 13.1466 7.30665L11.3333 6.77332L9.51995 7.30665C9.27995 7.37332 9.02661 7.30665 8.86661 7.13332C8.69328 6.95999 8.62661 6.71999 8.69328 6.47999L9.22661 4.66665L8.69328 2.85332C8.62661 2.61332 8.69328 2.35999 8.86661 2.19999C9.03995 2.02665 9.29328 1.95999 9.51995 2.02665L11.3333 2.55999L13.1466 2.02665C13.3866 1.95999 13.6266 2.02665 13.7999 2.19999C13.9733 2.37332 14.0399 2.62665 13.9733 2.85332L13.4399 4.66665L13.9733 6.47999C14.0399 6.71999 13.9733 6.97332 13.7999 7.13332C13.6799 7.26665 13.5066 7.33332 13.3333 7.33332ZM11.3333 5.41332C11.3999 5.41332 11.4533 5.42665 11.5199 5.43999L12.3466 5.67999L12.1066 4.85332C12.0666 4.73332 12.0666 4.59999 12.1066 4.47999L12.3466 3.65332L11.5199 3.89332C11.3999 3.93332 11.2666 3.93332 11.1466 3.89332L10.3199 3.65332L10.5599 4.47999C10.5999 4.59999 10.5999 4.73332 10.5599 4.85332L10.3199 5.67999L11.1466 5.43999C11.2133 5.42665 11.2666 5.41332 11.3333 5.41332Z" fill="#9F67FD"/>
<path d="M8.00003 15.3333C7.93336 15.3333 7.88003 15.32 7.81336 15.3067L6.00003 14.7733L4.18669 15.3067C3.94669 15.3733 3.70669 15.3067 3.53336 15.1333C3.36003 14.96 3.29336 14.7067 3.36003 14.48L3.89336 12.6667L3.36003 10.8533C3.29336 10.6133 3.36003 10.36 3.53336 10.2C3.70669 10.04 3.96003 9.95999 4.18669 10.0267L6.00003 10.56L7.81336 10.0267C8.04003 9.95999 8.29336 10.0267 8.46669 10.2C8.64003 10.3733 8.70669 10.6267 8.64003 10.8533L8.10669 12.6667L8.64003 14.48C8.70669 14.72 8.64003 14.9733 8.46669 15.1333C8.34669 15.2667 8.17336 15.3333 8.00003 15.3333ZM6.00003 13.4133C6.06669 13.4133 6.12003 13.4267 6.18669 13.44L7.01336 13.68L6.77336 12.8533C6.73336 12.7333 6.73336 12.6 6.77336 12.48L7.01336 11.6533L6.18669 11.8933C6.06669 11.9333 5.93336 11.9333 5.81336 11.8933L4.98669 11.6533L5.22669 12.48C5.26669 12.6 5.26669 12.7333 5.22669 12.8533L4.98669 13.68L5.81336 13.44C5.88003 13.4267 5.93336 13.4133 6.00003 13.4133Z" fill="#9F67FD"/>
<path d="M28 22.0001C27.9334 22.0001 27.88 21.9867 27.8134 21.9734L26 21.4401L24.1867 21.9734C23.9467 22.0401 23.7067 21.9734 23.5334 21.8001C23.36 21.6267 23.2934 21.3734 23.36 21.1467L23.8934 19.3334L23.36 17.5201C23.2934 17.2801 23.36 17.0267 23.5334 16.8667C23.7067 16.7067 23.96 16.6267 24.1867 16.6934L26 17.2267L27.8134 16.6934C28.04 16.6267 28.2934 16.6934 28.4667 16.8667C28.64 17.0401 28.7067 17.2934 28.64 17.5201L28.1067 19.3334L28.64 21.1467C28.7067 21.3867 28.64 21.6401 28.4667 21.8001C28.3467 21.9334 28.1734 22.0001 28 22.0001ZM26 20.0801C26.0667 20.0801 26.12 20.0934 26.1867 20.1067L27.0134 20.3467L26.7734 19.5201C26.7334 19.4001 26.7334 19.2667 26.7734 19.1467L27.0134 18.3201L26.1867 18.5601C26.0667 18.6001 25.9334 18.6001 25.8134 18.5601L24.9867 18.3201L25.2267 19.1467C25.2667 19.2667 25.2667 19.4001 25.2267 19.5201L24.9867 20.3467L25.8134 20.1067C25.88 20.0934 25.9334 20.0801 26 20.0801Z" fill="#9F67FD"/>
</svg>
