<svg width="60" height="60" viewBox="0 0 60 60" fill="none" xmlns="http://www.w3.org/2000/svg">
<path d="M30.0251 42.5C27.9 42.5 25.75 41.95 24.075 40.875L9.02505 31.05C6.22505 29.225 4.55005 26.15 4.55005 22.8C4.55005 19.45 6.22505 16.375 9.02505 14.55L24.1 4.74996C27.45 2.57496 32.675 2.57496 36 4.77496L50.975 14.6C53.75 16.425 55.425 19.5 55.425 22.825C55.425 26.15 53.75 29.225 50.975 31.05L36 40.875C34.325 41.975 32.1751 42.5 30.0251 42.5ZM30.0251 6.87496C28.6 6.87496 27.175 7.19997 26.15 7.89997L11.1 17.7C9.35005 18.85 8.32505 20.7 8.32505 22.8C8.32505 24.9 9.32505 26.75 11.1 27.9L26.15 37.725C28.225 39.075 31.875 39.075 33.9501 37.725L48.925 27.9C50.675 26.75 51.675 24.9 51.675 22.8C51.675 20.7 50.675 18.85 48.925 17.7L33.9501 7.87497C32.9 7.22497 31.475 6.87496 30.0251 6.87496Z" fill="#9F67FD"/>
<path d="M30 56.875C28.9 56.875 27.775 56.725 26.875 56.4249L18.9 53.775C15.125 52.525 12.15 48.4 12.175 44.425L12.2 32.7C12.2 31.675 13.05 30.825 14.075 30.825C15.1 30.825 15.95 31.675 15.95 32.7L15.925 44.425C15.925 46.775 17.875 49.475 20.1 50.225L28.075 52.875C29.075 53.2 30.925 53.2 31.925 52.875L39.9 50.225C42.125 49.475 44.075 46.775 44.075 44.45V32.85C44.075 31.825 44.925 30.975 45.95 30.975C46.975 30.975 47.825 31.825 47.825 32.85V44.45C47.825 48.425 44.875 52.525 41.1 53.8L33.125 56.45C32.225 56.725 31.1 56.875 30 56.875Z" fill="#9F67FD"/>
<path d="M53.5 39.375C52.475 39.375 51.625 38.525 51.625 37.5V22.5C51.625 21.475 52.475 20.625 53.5 20.625C54.525 20.625 55.375 21.475 55.375 22.5V37.5C55.375 38.525 54.525 39.375 53.5 39.375Z" fill="#9F67FD"/>
</svg>
