<svg width="28" height="28" viewBox="0 0 28 28" fill="none" xmlns="http://www.w3.org/2000/svg">
<g id="vuesax/outline/arrow-left">
<g id="arrow-left">
<path id="Vector" d="M11.1647 21.9566C10.943 21.9566 10.7214 21.8749 10.5464 21.6999L3.46469 14.6182C3.12635 14.2799 3.12635 13.7199 3.46469 13.3816L10.5464 6.29989C10.8847 5.96156 11.4447 5.96156 11.783 6.29989C12.1214 6.63823 12.1214 7.19823 11.783 7.53656L5.31969 13.9999L11.783 20.4632C12.1214 20.8016 12.1214 21.3616 11.783 21.6999C11.6197 21.8749 11.3864 21.9566 11.1647 21.9566Z" fill="#2E2E2E"/>
<path id="Vector_2" d="M23.9162 14.875H4.28125C3.80292 14.875 3.40625 14.4783 3.40625 14C3.40625 13.5217 3.80292 13.125 4.28125 13.125H23.9162C24.3946 13.125 24.7912 13.5217 24.7912 14C24.7912 14.4783 24.3946 14.875 23.9162 14.875Z" fill="#2E2E2E"/>
</g>
</g>
</svg>
