<svg width="88" height="84" viewBox="0 0 88 84" fill="none" xmlns="http://www.w3.org/2000/svg">
<path id="Vector" fill-rule="evenodd" clip-rule="evenodd" d="M64.0441 -2.27846C72.9644 3.28144 83.7763 8.51417 86.5949 18.6463C89.3525 28.5593 80.2705 37.4743 77.8887 47.4893C75.5941 57.1382 81.2225 70.6432 72.9342 76.0878C64.2712 81.7786 53.4537 68.924 43.1837 70.2872C32.3781 71.7214 25.0809 85.5038 14.3067 83.8693C3.06599 82.164 -5.52471 72.141 -10.8442 62.0907C-16.3901 51.6124 -19.1565 38.9498 -15.4304 27.6857C-11.8517 16.867 -0.456475 11.5483 8.2903 4.24617C16.6267 -2.71338 23.6008 -12.637 34.3805 -13.8985C45.1966 -15.1642 54.806 -8.03646 64.0441 -2.27846Z" fill="#834EEB" fill-opacity="0.3"/>
</svg>
